<svg width="222" height="200" viewBox="0 0 222 200" fill="none" xmlns="http://www.w3.org/2000/svg">
<path d="M203.192 40.7046C219.202 67.7088 221.063 100.53 215.208 127.415C209.155 154.624 195.367 175.896 175.436 187.616C155.324 199.438 131.543 200.751 106.028 197.749C80.7302 194.405 53.6791 186.746 32.1034 173.184C-11.5541 147.937 -11.4999 93.4677 40.5421 40.9604C92.1686 -11.3592 172.183 -15.8116 203.192 40.7046Z" fill="#EAF4FE"/>
<path d="M198.06 28.7804C191.591 28.7804 186.296 33.2498 185.79 38.9304C185.338 38.8793 184.869 38.8281 184.399 38.8281C179.231 38.8281 175.002 42.4446 174.677 47.0164H221.876C221.768 41.0287 216.347 36.2181 209.661 36.1669C207.98 31.8681 203.427 28.7804 198.06 28.7804Z" fill="#C5E1F9"/>
<path d="M162.696 26.6139C158.576 26.6139 155.197 28.7463 154.854 31.4757C154.565 31.4416 154.276 31.4245 153.969 31.4245C150.662 31.4245 147.969 33.1475 147.771 35.3481H177.912C177.839 32.4822 174.388 30.1792 170.123 30.1451C169.039 28.098 166.13 26.6139 162.696 26.6139Z" fill="#C5E1F9"/>
<path d="M13.4008 157.558C18.2978 163.529 24.55 168.783 32.1214 173.167C53.6972 186.746 80.7483 194.405 106.046 197.732C131.562 200.751 155.342 199.438 175.454 187.599C187.236 180.673 196.867 170.403 204.023 157.541H13.4008V157.558Z" fill="#C5E1F9"/>
<path d="M54.9442 111.192L45.343 99.8083L44.4382 100.488L54.0395 111.872L54.9442 111.192Z" fill="#0561FC"/>
<path d="M97.7703 96.5554L126.141 98.9607L132.483 131.748L129.935 132.345C129.935 132.345 135.374 134.392 139.169 134.75C143.145 135.126 143.632 137.463 143.632 137.463L125.942 138.06L125.309 135.654L120.069 109.179L99.3605 108.275L97.7703 96.5554Z" fill="#281617"/>
<path d="M131.092 80.3836L137.254 79.5477L138.392 79.3941C138.392 79.3941 138.735 82.1748 137.38 83.2665C136.025 84.3583 131.146 83.1642 130.459 82.7036C130.242 82.55 113.293 84.2559 112.967 84.1195C109.353 82.6183 108.703 77.4324 108.865 77.1424C109.046 76.8182 131.092 80.3836 131.092 80.3836Z" fill="#EC9568"/>
<path d="M81.3446 68.2376C81.3446 68.2376 83.4227 57.3882 90.7049 61.2606C97.9872 65.1329 109.932 76.3747 109.932 76.3747L112.967 77.1424C112.967 77.1424 114.196 79.8547 114.196 82.5671C114.196 85.2795 112.534 85.6718 112.534 85.6718C112.534 85.6718 92.783 82.5842 81.3446 68.2376Z" fill="#C5E1F9"/>
<path d="M100.643 151.929C100.643 151.929 98.1859 157.609 91.0663 157.609C83.9466 157.609 74.0984 157.609 66.9788 152.952C59.8591 148.295 39.6024 135.637 39.6024 133.573C39.6024 131.509 38.5002 129.172 42.6202 129.172C55.2151 129.172 87.5065 135.637 92.4396 137.446C97.3728 139.271 100.643 151.929 100.643 151.929Z" fill="#003E99"/>
<path d="M171.027 131.27C159.968 131.27 150.987 139.748 150.987 150.189C150.987 160.629 159.968 169.107 171.027 169.107C182.086 169.107 191.067 160.629 191.067 150.189C191.067 139.731 182.104 131.27 171.027 131.27ZM171.027 162.454C163.853 162.454 158.034 156.961 158.034 150.189C158.034 143.416 163.853 137.923 171.027 137.923C178.201 137.923 184.019 143.416 184.019 150.189C184.037 156.961 178.219 162.454 171.027 162.454Z" fill="#212957"/>
<path d="M171.027 136.951C163.293 136.951 157.022 142.87 157.022 150.172C157.022 157.473 163.293 163.392 171.027 163.392C178.761 163.392 185.031 157.473 185.031 150.172C185.049 142.887 178.761 136.951 171.027 136.951ZM171.027 158.769C166.003 158.769 161.937 154.931 161.937 150.189C161.937 145.446 166.003 141.608 171.027 141.608C176.05 141.608 180.116 145.446 180.116 150.189C180.116 154.931 176.05 158.769 171.027 158.769Z" fill="#7EB3FF"/>
<path d="M171.027 160.509C177.065 160.509 181.959 155.888 181.959 150.189C181.959 144.489 177.065 139.868 171.027 139.868C164.989 139.868 160.094 144.489 160.094 150.189C160.094 155.888 164.989 160.509 171.027 160.509Z" fill="#C5E1F9"/>
<path d="M186.712 133.147C182.917 126.801 175.4 122.485 166.744 122.485C154.276 122.485 144.156 131.458 144.156 142.512C144.156 142.87 144.175 143.229 144.193 143.587L186.712 133.147Z" fill="#FD9F02"/>
<path d="M167.124 127.296C173.719 127.296 179.809 129.291 184.778 132.669C180.712 127.449 173.9 124.02 166.202 124.02C157.058 124.02 149.198 128.848 145.638 135.774C151.113 130.554 158.721 127.296 167.124 127.296Z" fill="#FDB702"/>
<path d="M61.7745 131.27C50.7156 131.27 41.7347 139.748 41.7347 150.189C41.7347 160.629 50.7156 169.107 61.7745 169.107C72.8335 169.107 81.8143 160.629 81.8143 150.189C81.8143 139.731 72.8515 131.27 61.7745 131.27ZM61.7745 162.454C54.6007 162.454 48.7821 156.961 48.7821 150.189C48.7821 143.416 54.6007 137.923 61.7745 137.923C68.9484 137.923 74.767 143.416 74.767 150.189C74.785 156.961 68.9664 162.454 61.7745 162.454Z" fill="#212957"/>
<path d="M61.7745 136.951C54.0405 136.951 47.7701 142.87 47.7701 150.172C47.7701 157.473 54.0405 163.392 61.7745 163.392C69.5085 163.392 75.7789 157.473 75.7789 150.172C75.7969 142.887 69.5266 136.951 61.7745 136.951ZM61.7745 158.769C56.751 158.769 52.6852 154.931 52.6852 150.189C52.6852 145.446 56.751 141.608 61.7745 141.608C66.798 141.608 70.8638 145.446 70.8638 150.189C70.8638 154.931 66.798 158.769 61.7745 158.769Z" fill="#7EB3FF"/>
<path d="M61.7745 160.509C67.8123 160.509 72.7069 155.888 72.7069 150.189C72.7069 144.489 67.8123 139.868 61.7745 139.868C55.7367 139.868 50.8421 144.489 50.8421 150.189C50.8421 155.888 55.7367 160.509 61.7745 160.509Z" fill="#C5E1F9"/>
<path d="M36.8739 128.166C36.8739 128.166 86.2777 141.864 90.7953 142.256C95.3128 142.649 92.4396 146.129 94.8972 148.466C97.3547 150.786 103.932 155.05 105.161 155.443C106.39 155.835 133.911 153.89 138.41 152.73C142.928 151.57 167.973 119.005 167.973 119.005C167.973 119.005 156.083 94.5766 147.463 91.0795C138.844 87.5824 136.386 93.7918 136.386 93.7918C136.386 93.7918 145.421 110.851 144.59 115.883C143.777 120.915 143.777 133.317 137.199 136.047C130.622 138.759 118.732 137.207 116.256 136.047C113.799 134.887 103.932 132.174 110.925 119.38C117.214 107.865 65.5874 102.97 55.2151 102.458C54.0586 102.407 53.4442 104.13 53.4442 104.13C58.1063 113.427 47.9328 118.613 42.313 123.474C40.4879 125.044 38.6809 126.596 36.8739 128.166Z" fill="#FDB702"/>
<path d="M54.6729 102.321L115.027 120.54C115.027 120.54 119.545 117.06 119.545 113.955C119.545 110.851 116.256 104.658 110.51 103.106C104.763 101.554 64.1056 99.2337 64.1056 99.2337C64.1056 99.2337 57.1305 97.6642 54.6729 102.321Z" fill="#0561FC"/>
<path d="M60.4193 116.685C53.39 118.595 44.9693 123.952 38.6267 128.541C47.1558 130.946 86.7656 142.017 90.7953 142.341C92.2048 142.461 92.8914 142.836 93.2528 143.399C97.2102 141.113 99.722 138.571 100.246 137.36C101.475 134.511 99.8304 129.53 96.5597 119.193C93.2528 108.855 71.2614 113.751 60.4193 116.685Z" fill="#FD9F02"/>
<path d="M37.0184 128.08C37.0184 128.08 52.2154 120.95 70.2676 120.591C87.1812 120.25 93.6684 121.666 92.4397 128.78C91.2109 135.91 90.7953 139.476 79.3026 138.043C70.6832 136.968 52.8118 134.307 43.2165 131.236C40.0181 130.23 37.7232 129.155 37.0184 128.08Z" fill="#FDB702"/>
<path d="M145.945 89.0154C143.723 88.1112 142.928 89.0154 141.952 90.0389C144.12 96.1289 158.107 113.546 157.709 120.54C157.293 127.91 150.734 134.102 147.861 138.367C144.988 142.631 139.241 146.896 133.495 147.289C128.255 147.647 96.9752 143.143 91.5903 142.359C94.9514 143.092 92.6023 146.265 94.8972 148.449C97.3547 150.769 103.932 155.033 105.161 155.426C106.39 155.818 133.911 153.873 138.41 152.713C142.928 151.553 167.973 118.988 167.973 118.988C167.973 118.988 154.583 92.4954 145.945 89.0154Z" fill="#FD9F02"/>
<path d="M144.626 114.996C144.626 115.32 144.626 115.627 144.572 115.9C143.759 120.933 143.759 133.334 137.181 136.064C130.604 138.776 118.714 137.224 116.238 136.064C113.78 134.904 103.914 132.191 110.907 119.397C110.907 119.397 105.287 118.63 104.745 124.822C104.203 131.031 105.287 136.456 111.865 138.52C118.443 140.584 132.14 140.636 135.681 139.288C142.53 136.712 145.801 126.886 146.09 121.717C146.162 120.387 145.566 117.93 144.626 114.996Z" fill="#FD9F02"/>
<path d="M42.313 123.474C42.313 123.474 41.3372 123.116 41.6805 120.984C42.0239 118.851 44.2826 116.275 44.8247 115.303C45.3668 114.331 46.3968 113.358 47.7702 113.307C49.1435 113.239 52.4865 113.239 54.0044 113.307C55.4861 113.375 43.6321 122.724 42.313 123.474Z" fill="#FDB702"/>
<path d="M49.9748 113.256C49.0893 113.256 48.2762 113.273 47.7521 113.307C46.3788 113.375 45.3488 114.348 44.8067 115.303C44.2646 116.275 42.0059 118.851 41.6625 120.984C41.6083 121.291 41.5902 121.564 41.5902 121.803C44.3008 119.329 48.7099 115.013 49.9748 113.256Z" fill="#DD000B"/>
<path d="M136.368 93.7919C136.368 93.7919 131.435 85.2624 131.58 84.7506C131.724 84.2389 133.35 79.1894 136.91 77.6371C140.47 76.0847 137.452 74.5324 140.597 74.5324C143.741 74.5324 144.283 74.2765 146.487 74.3959C148.674 74.5324 150.86 75.3 151.005 79.8206C151.15 84.3412 152.234 87.3095 150.463 87.446C148.692 87.5824 145.945 87.446 144.446 87.3095C142.946 87.173 141.988 89.5101 141.952 90.0219C141.807 92.9219 136.368 93.7919 136.368 93.7919Z" fill="#FDB702"/>
<path d="M151.023 79.8377C150.897 75.8629 149.198 74.7882 147.301 74.4982C146.686 75.0953 146.397 75.9653 146.65 76.8353L149.017 85.2795C149.288 86.2689 150.192 86.9683 151.222 87.0877C151.854 86.1324 151.131 83.4883 151.023 79.8377Z" fill="#B1B3AE"/>
<path d="M130.785 86.883L136.477 83.7783C137.218 83.3689 137.47 82.4818 137.037 81.7824C136.603 81.083 135.663 80.8442 134.923 81.2536L129.231 84.3583C128.49 84.7677 128.237 85.6547 128.67 86.3542C129.104 87.0365 130.044 87.2753 130.785 86.883Z" fill="#B1B3AE"/>
<path d="M136.603 68.8347C136.603 68.8347 134.832 62.7788 133.495 62.6764C132.14 62.5741 131.345 64.8088 130.965 67.5553C130.586 70.3018 130.405 73.2188 132.086 72.7412C133.766 72.2806 136.296 69.9435 136.603 68.8347Z" fill="#B1B3AE"/>
<path d="M136.565 68.4735L135.745 68.6006L137.324 77.6908L138.145 77.5637L136.565 68.4735Z" fill="#B1B3AE"/>
<path d="M138.284 69.7388C138.284 69.7388 137.579 65.5764 136.657 65.4229C135.754 65.2694 135.031 66.6853 134.543 68.4935C134.055 70.2847 133.712 72.2124 134.887 72.0247C136.097 71.8371 137.995 70.4553 138.284 69.7388Z" fill="#B1B3AE"/>
<path d="M138.013 76.9206L137.724 69.5341L138.284 69.5L138.573 76.8865L138.013 76.9206Z" fill="#B1B3AE"/>
<path d="M107.167 136.405V138.52H118.154C118.154 138.52 116.401 135.654 112.732 135.057C109.082 134.46 107.167 136.405 107.167 136.405Z" fill="#281617"/>
<path d="M81.2723 104.078C81.2723 104.078 73.8997 105.392 72.2914 90.6871C70.6832 75.9824 69.5628 72.963 70.2676 67.0776C71.0807 60.1006 78.0739 57.7805 78.0739 57.7805L87.38 59.3329C87.38 59.3329 94.1202 61.6188 94.7526 64.8941C95.4031 68.1694 93.1444 81.2365 94.1021 83.5224C95.0598 85.8083 98.6016 93.3313 98.6016 93.3313L81.2723 104.078Z" fill="#C5E1F9"/>
<path d="M78.6521 103.174C78.6521 103.174 81.5253 94.4571 90.4339 93.246C99.3605 92.0348 100.951 92.0348 100.951 92.0348C100.951 92.0348 107.004 99.8478 113.383 133.539C113.636 134.87 105.414 137.156 105.414 137.156L95.8549 107.081C95.8549 107.081 83.7479 110.697 78.6521 103.174Z" fill="#003E99"/>
<path d="M94.7526 100.308L105.414 137.173" stroke="#9AC7F7" stroke-width="2.6513" stroke-miterlimit="10"/>
<path d="M88.4823 53.0381C88.4823 53.0381 83.0613 50.974 81.7783 49.4387C80.4953 47.9034 83.8745 48.0058 83.3323 45.5834C82.5373 42.0522 87.3439 37.5828 88.1751 41.4722C89.0064 45.3616 86.8018 46.4022 87.1993 44.6622C87.5969 42.9393 87.362 38.0946 92.512 39.4934C97.6619 40.9093 98.71 44.4234 94.0118 45.0546C89.3136 45.6687 100.174 41.8305 99.1979 45.0375C98.2221 48.2275 95.2406 47.2211 94.1925 46.9652C93.1444 46.7093 98.963 45.4128 97.5897 48.7052C96.1983 51.9976 92.7469 52.8334 88.4823 53.0381Z" fill="#212A54"/>
<path d="M84.1816 52.0658C84.1816 52.0658 83.1516 55.0511 82.3023 56.3305C80.7663 58.6676 78.7063 62.557 87.6149 61.8406C89.1147 61.7212 85.6634 57.0641 88.0305 55.3411C90.3797 53.6352 84.1816 52.0658 84.1816 52.0658Z" fill="#F7B68B"/>
<path d="M83.4769 51.9293C83.4769 51.9293 84.4166 53.2258 82.3566 56.757C82.3566 56.757 84.9587 58.4629 87.0006 57.2005C87.0186 56.5694 87.2536 55.9211 88.0306 55.3582C90.3797 53.6352 83.4769 51.9293 83.4769 51.9293Z" fill="#EC9568"/>
<path d="M93.9386 46.5558C93.9386 46.5558 94.2638 49.217 92.6917 52.987C91.1196 56.7399 88.8067 57.337 85.554 55.887C82.3014 54.4199 82.952 50.4793 83.3134 49.5411C83.6748 48.6199 80.2776 48.5005 81.6328 46.5387C83.0062 44.5769 84.1446 45.7711 84.0362 46.6752C83.9458 47.5622 84.1988 48.8246 85.1204 48.3299C86.0419 47.8352 85.6444 44.0993 87.1081 45.0716C88.6079 46.0099 91.2461 47.494 93.9386 46.5558Z" fill="#F7B68B"/>
<path d="M70.4301 69.7729C70.4301 69.7729 72.5624 58.9235 79.9893 62.7958C87.4342 66.6682 99.6496 77.91 99.6496 77.91L103.408 79.07C103.408 79.07 109.606 85.9277 106.697 87.2071C104.926 87.9748 102.288 87.2071 102.288 87.2071C102.288 87.2071 82.1215 84.1194 70.4301 69.7729Z" fill="#9AC7F7"/>
<path d="M124.93 82.7036L131.092 81.8677L132.23 81.7141C132.23 81.7141 132.574 84.4948 131.218 85.5865C129.863 86.6783 124.984 85.4842 124.297 85.0236C124.081 84.8701 107.131 86.576 106.805 86.4395C103.191 84.9383 102.541 79.7524 102.703 79.4624C102.884 79.1382 124.93 82.7036 124.93 82.7036Z" fill="#F7B68B"/>
<path d="M134.597 83.5736L132.61 86.4053L130.351 86.0471L132.212 81.7142L134.597 83.5736Z" fill="#EC9568"/>
<path d="M68.2076 61.6695H28.652V99.2332H68.2076V61.6695Z" fill="#F6BC00"/>
<path d="M63.2925 68.5101H33.5671C30.8566 68.5101 28.652 66.4289 28.652 63.8701V61.6695H68.2076V63.8701C68.2076 66.446 66.0031 68.5101 63.2925 68.5101Z" fill="#F68F05"/>
<path d="M39.1869 61.6358H35.7897V69.5511H39.1869V61.6358Z" fill="#0561FC"/>
<path d="M60.4012 61.6358H57.0041V69.5511H60.4012V61.6358Z" fill="#0561FC"/>
<path d="M61.9372 71.82H36.0065V88.7766H61.9372V71.82Z" fill="#FFA403"/>
<path d="M60.8349 99.4384H29.3206V100.94H60.8349V99.4384Z" fill="#0561FC"/>
<path d="M86.4584 50.3428C86.4584 50.3428 88.9882 50.6328 93.3431 52.0487C95.0598 52.6117 89.3858 57.5246 89.2412 57.5588C88.428 57.7123 85.9163 56.5011 84.3081 55.2387C82.6998 53.9764 82.8625 52.0146 82.8625 52.0146C82.8625 52.0146 85.2838 53.8399 86.4584 50.3428Z" fill="white"/>
<path d="M86.8741 51.3152L84.7057 48.3469L84.9767 48.1934L87.1271 51.1787L86.8741 51.3152Z" fill="white"/>
</svg>
