<svg width="262" height="180" viewBox="0 0 262 180" fill="none" xmlns="http://www.w3.org/2000/svg">
<g clip-path="url(#clip0)">
<path d="M0.76457 124.606C0.76457 124.606 24.0117 184.351 85.6113 179.753C147.232 175.154 148.327 166.842 154.03 160.284C159.733 153.726 174.632 144.961 185.832 142.342C197.011 139.723 221.126 114.995 208.191 83.6893C151.488 -53.4555 -12.4604 39.308 0.76457 124.606Z" fill="#FCFCFC"/>
<path d="M128.903 174.246C148.43 169.915 150.166 164.698 154.009 160.284C157.192 156.613 163.267 152.262 169.962 148.673V137.475H128.903V174.246Z" fill="white"/>
<path d="M0.764577 124.606C0.764577 124.606 24.0117 184.352 85.6113 179.753C89.1449 179.484 92.4925 179.216 95.6334 178.928V82.06H7.79037C1.34317 95.7126 -1.46714 110.252 0.764577 124.606Z" fill="white"/>
<path d="M185.977 46.4849C163.618 20.4583 134.833 11.6934 106.606 14.3332V77.9354H185.977V46.4849Z" fill="white"/>
<path d="M115.988 34.2346H151.736C152.584 34.2346 153.266 34.9152 153.266 35.7608V100.538C153.266 101.384 152.584 102.065 151.736 102.065H115.988C115.14 102.065 114.458 101.384 114.458 100.538V35.7608C114.438 34.9152 115.14 34.2346 115.988 34.2346Z" fill="url(#paint0_linear)"/>
<path d="M153.245 68.0568V100.538C153.245 101.384 152.563 102.065 151.716 102.065H115.967C115.12 102.065 114.438 101.384 114.438 100.538V87.2365C123.447 86.3497 134.337 83.2768 143.078 74.78C146.136 71.8103 149.587 69.6448 153.245 68.0568Z" fill="#FF8800"/>
<path d="M150.724 102.065H118.033V95.2177C118.033 94.6403 118.509 94.1453 119.108 94.1453H149.67C150.249 94.1453 150.745 94.6196 150.745 95.2177V102.065H150.724Z" fill="#FFF1DB" fill-opacity="0.502"/>
<path d="M118.033 37.2869H122.145C122.559 37.2869 122.889 37.6169 122.889 38.0293C122.889 38.4418 122.559 38.7718 122.145 38.7718H118.033C117.62 38.7718 117.289 38.4418 117.289 38.0293C117.289 37.6169 117.62 37.2869 118.033 37.2869ZM118.033 41.989H122.145C122.559 41.989 122.889 42.319 122.889 42.7314C122.889 43.1439 122.559 43.4739 122.145 43.4739H118.033C117.62 43.4739 117.289 43.1439 117.289 42.7314C117.289 42.319 117.62 41.989 118.033 41.989ZM118.033 39.6379H122.145C122.559 39.6379 122.889 39.9679 122.889 40.3804C122.889 40.7929 122.559 41.1228 122.145 41.1228H118.033C117.62 41.1228 117.289 40.7929 117.289 40.3804C117.289 39.9679 117.62 39.6379 118.033 39.6379Z" fill="#FFF1DB" fill-opacity="0.502"/>
<path d="M126.175 37.2869H149.629C150.228 37.2869 150.724 37.7819 150.724 38.3799V42.3808C150.724 42.9789 150.228 43.4739 149.629 43.4739H126.175C125.576 43.4739 125.08 42.9789 125.08 42.3808V38.3799C125.08 37.7819 125.576 37.2869 126.175 37.2869Z" fill="#FFF1DB" fill-opacity="0.502"/>
<path d="M119.748 83.7924H148.988C149.939 83.7924 150.703 84.5761 150.703 85.5041C150.703 86.4528 149.918 87.2159 148.988 87.2159H119.748C118.798 87.2159 118.033 86.4322 118.033 85.5041C118.033 84.5555 118.818 83.7924 119.748 83.7924Z" fill="#FFF1DB" fill-opacity="0.502"/>
<path d="M175.5 143.765L168.929 136.155C168.929 136.155 165.602 137.599 165.292 139.372C164.982 141.166 161.242 145.724 159.196 142.692C157.15 139.661 162.647 136.072 164.445 135.742C166.243 135.412 166.036 132.938 165.685 132.608C165.333 132.257 156.675 124.317 156.675 124.317C156.675 124.317 153.637 126.586 153.348 130.319C153.08 134.051 150.187 136.959 147.976 134.258C145.764 131.556 149.484 129.39 150.476 128.772C151.468 128.132 151.695 125.575 151.695 125.575C151.695 125.575 145.041 124.276 142.417 125.06C139.793 125.843 134.461 122.997 131.093 125.018C127.725 127.039 127.497 128.05 127.497 128.05C127.497 128.05 132.25 130.401 133.097 132.154C133.924 133.886 135.804 140.135 137.478 140.3C139.152 140.465 142.024 135.495 144.029 137.929C146.033 140.362 139.297 143.373 139.545 144.219C139.772 145.064 147.914 152.324 147.914 152.324C147.914 152.324 150.311 151.705 151.323 150.055C152.336 148.405 154.009 147.085 155.435 148.632C156.861 150.179 153.493 152.076 152.439 153.066C151.385 154.056 149.877 155.314 149.877 155.314C149.877 155.314 151.509 158.717 153.142 161.315C153.431 160.965 153.699 160.614 154.009 160.284C156.654 157.232 161.283 153.726 166.594 150.571C168.97 148.467 171.388 146.59 173.723 145.126C173.868 145.023 174.012 144.94 174.178 144.837L174.198 144.817C174.343 144.714 174.488 144.61 174.632 144.487L174.674 144.466C174.818 144.363 174.963 144.239 175.107 144.115L175.128 144.095C175.273 143.971 175.376 143.868 175.5 143.765Z" fill="url(#paint1_linear)"/>
<path d="M164.156 152.076L164.176 152.055H164.197H164.218H164.238H164.259H164.28H164.3H164.321L164.362 152.035H164.383H164.404H164.424H164.445C159.961 147.436 149.939 137.599 140.702 131.741C140.516 131.618 140.247 131.68 140.123 131.865C139.999 132.051 140.061 132.319 140.247 132.443C149.36 138.197 159.217 147.869 163.722 152.489C163.804 152.282 163.97 152.179 164.156 152.076Z" fill="url(#paint2_linear)"/>
<path d="M119.748 88.5564H146.302C147.252 88.5564 148.017 89.3401 148.017 90.2681C148.017 91.2168 147.232 91.9798 146.302 91.9798H119.748C118.798 91.9798 118.033 91.1961 118.033 90.2681C118.033 89.3194 118.818 88.5564 119.748 88.5564Z" fill="#FFF1DB" fill-opacity="0.502"/>
<path d="M119.108 46.0106H149.67C150.249 46.0106 150.745 46.4849 150.745 47.083V80.4927C150.745 81.0701 150.269 81.5651 149.67 81.5651H119.108C118.529 81.5651 118.033 81.0908 118.033 80.4927V47.083C118.033 46.4849 118.509 46.0106 119.108 46.0106Z" fill="#FFF1DB" fill-opacity="0.502"/>
<path d="M150.724 67.6237V80.472C150.724 81.0495 150.249 81.5444 149.649 81.5444H119.108C118.529 81.5444 118.033 81.0701 118.033 80.472V69.7067C121.525 67.4381 129.171 62.5092 129.688 62.5092C130.349 62.5092 140.805 71.1503 140.805 71.1503C140.805 71.1503 147.17 65.2933 147.769 65.2933C148.038 65.2933 149.36 66.407 150.724 67.6237Z" fill="#FFC524"/>
<path d="M150.724 69.2736V80.4927C150.724 81.0701 150.249 81.5651 149.649 81.5651H133.821C137.044 79.8327 140.165 77.6054 143.057 74.8007C145.413 72.4909 147.996 70.6966 150.724 69.2736Z" fill="#FFC524"/>
<path d="M142.458 55.126C144.153 55.126 145.537 56.5078 145.537 58.1989C145.537 59.89 144.153 61.2718 142.458 61.2718C140.764 61.2718 139.379 59.89 139.379 58.1989C139.379 56.4872 140.764 55.126 142.458 55.126Z" fill="#FFC15E"/>
<path d="M31.6367 164.285C33.5791 165.749 35.6455 167.152 37.7946 168.492L43.8492 165.687C43.8492 165.687 43.1879 161.48 41.5555 160.325C39.9023 159.17 38.8691 155.891 40.6256 154.736C42.382 153.582 44.8411 156.758 44.7377 158.572C44.6344 160.387 46.4322 164.368 46.4322 164.368L51.3502 163.11L52.0528 158.593C52.0528 158.593 43.1673 149.519 42.9606 147.642C42.7333 145.786 43.8285 135.722 43.5186 133.536C43.4772 133.226 43.4566 132.628 43.4772 131.845C42.7953 131.886 41.9068 131.989 40.8116 132.257C40.6876 135.577 39.1998 137.702 38.4559 138.135C37.6913 138.568 31.802 133.989 30.8308 137.578C29.8596 141.166 36.4721 139.269 37.3607 139.599C38.2285 139.929 37.8566 141.95 37.464 145.229C37.0714 148.508 35.8728 150.983 35.0049 151.024C34.1371 151.086 27.7932 145.518 26.8426 149.106C25.8714 152.695 32.1533 152.55 34.1784 152.612C36.2035 152.674 35.5422 154.468 35.5422 154.468L31.6367 164.285Z" fill="url(#paint3_linear)"/>
<path d="M42.94 146.467V146.446V146.425V146.363V146.343V146.322V146.302V146.281V146.26V146.24V146.219V146.198V146.178V146.137V146.116V146.095V146.075V146.054V146.033V146.013V145.992V145.972V145.951V145.93V145.91V145.889V145.868V145.848V145.827V145.807V145.786V145.765V145.745V145.724V145.704V145.683V145.662V145.642V145.621V145.6V145.58V145.559V145.539V145.518V145.497V145.477V145.456V145.435V145.415V145.394V145.374V145.353V145.332V145.312V145.291V145.27V145.25L36.7614 148.488L36.7201 148.591V148.611L36.6788 148.715V148.735L36.6374 148.838V148.859L36.5961 148.941L36.5754 149.003V149.024V149.044L36.5341 149.127L36.5134 149.189V149.209V149.23L36.4928 149.292V149.313V149.333V149.354L36.4721 149.395V149.416V149.436L36.4514 149.478V149.498V149.519V149.539V149.56V149.581V149.601L36.4308 149.622L42.94 146.467ZM40.7909 147.477L40.7496 147.456H40.7289H40.7083H40.6876H40.6669H40.6463H40.6256L40.5429 147.415H40.5223H40.5016H40.481H40.4603L40.4396 147.395H40.419H40.3983H40.3776H40.357H40.3363H40.3156H40.295H40.2743H40.2536H40.233H40.2123H40.1917H40.171H40.1503H40.1297H40.109H40.0883H40.0677H40.047H40.0263H40.0057H39.985H39.9643H39.9437H39.923H39.9024H39.8817H39.861H39.8404H39.8197H39.799H39.7784H39.7577H39.737H39.7164H39.6957H39.6751H39.6544H39.6337H39.6131L35.4182 149.374L35.4802 149.395H35.5009L35.5629 149.416H35.5836L35.6455 149.436L35.7282 149.457H35.7489L35.8109 149.478L35.8935 149.498H35.9142H35.9348H35.9555H35.9762L36.0588 149.519H36.0795H36.1002H36.1208L36.2241 149.539H36.2448H36.2655H36.2861H36.3068L36.3688 149.56H36.3895H36.4101H36.4308H36.4514L36.5341 149.581H36.5548H36.5754H36.5961H36.6168H36.6374L36.7201 149.601H36.7407L40.7909 147.477Z" fill="url(#paint4_linear)"/>
<path d="M11.1379 142.94C12.7291 145.188 14.5062 147.518 16.4899 149.869C17.6885 149.643 19.4242 149.457 19.6309 150.261C19.8169 150.983 19.0316 151.581 18.3084 151.973C22.0692 156.201 26.4914 160.428 31.6367 164.285L35.5629 154.468C35.5629 154.468 36.2241 152.654 34.1991 152.612C32.174 152.55 25.8921 152.695 26.8633 149.106C27.8345 145.518 34.1577 151.066 35.0256 151.024C35.8935 150.962 37.1127 148.508 37.4847 145.229C37.8773 141.95 38.2492 139.929 37.3813 139.599C36.5134 139.269 29.9009 141.166 30.8515 137.578C31.8227 133.989 37.712 138.568 38.4765 138.135C39.2411 137.702 40.7702 135.454 40.8322 131.989C40.8942 128.524 40.8116 128.318 40.2536 128.318C39.6957 128.318 33.4138 130.03 34.385 126.379C35.3562 122.729 40.0057 126.544 40.5429 126.194C41.1009 125.843 40.3983 118.893 40.5636 117.305C40.7289 115.717 41.7208 113.882 39.799 113.201C37.8773 112.521 32.4633 113.614 29.6943 116.645C26.9253 119.677 26.6773 121.141 26.6773 121.141C26.6773 121.141 32.298 123.575 29.281 126.586C26.2641 129.597 22.9578 123.348 22.9578 123.348C22.9578 123.348 20.1268 124.956 18.1637 128.731C16.2006 132.505 17.1305 134.691 17.1305 134.691C17.1305 134.691 24.0117 134.856 23.1231 138.155C22.2346 141.455 14.6095 136.65 14.6095 136.65C14.6095 136.65 12.0472 138.774 11.1379 142.94Z" fill="url(#paint5_linear)"/>
<path d="M86.1279 39.1842C86.1279 39.1842 88.4836 53.8474 88.6489 58.0133C88.8143 62.1792 88.7523 68.3043 88.7523 68.3043L83.1523 70.8822L84.5161 75.3781C84.5161 75.3781 99.8075 81.6682 100.572 82.6581C101.337 83.648 119.542 119.099 119.542 119.099C119.542 119.099 123.923 110.355 124.914 108.602C125.906 106.849 127.766 99.5692 127.766 99.5692L128.696 99.2392C128.696 99.2392 130.659 87.4221 131.444 85.7722C132.209 84.1224 135.122 76.4711 135.122 76.4711C135.122 76.4711 137.375 77.8941 137.251 79.1521C137.148 80.4102 136.383 85.0504 136.383 85.0504C136.383 85.0504 138.346 83.1324 138.801 83.1324C139.235 83.1324 141.094 85.2154 141.012 85.5866C140.95 85.9578 139.607 87.1952 139.607 87.1952L141.838 86.5559C141.838 86.5559 142.148 86.4528 142.272 86.8859C142.376 87.319 143.181 90.2681 143.037 90.4331C142.892 90.5774 141.28 90.9899 141.28 90.9899L142.314 90.9487C142.314 90.9487 142.438 90.928 142.541 91.2786C142.644 91.6292 143.057 93.0935 142.975 93.2172C142.913 93.341 140.805 94.6196 140.805 94.6196C140.805 94.6196 141.156 98.2081 140.165 99.7754L139.565 102.188L141.59 110.396C141.59 110.396 137.995 112.417 137.912 112.851C137.829 113.284 127.807 140.445 127.807 140.445C127.807 140.445 126.609 143.187 121.67 143.187C116.731 143.187 114.872 142.486 114.872 142.486L102.432 125.575C102.432 125.575 104.126 159.047 105.552 160.8C106.379 161.831 107.412 170.575 108.115 177.649C101.667 178.433 94.2282 179.134 85.5907 179.794C71.6837 180.825 59.7399 178.577 49.5732 174.494L52.0322 158.614C52.0322 158.614 49.9451 130.875 44.6964 114.954C44.6964 114.954 41.8448 97.8781 45.6883 86.2878C45.6883 86.2878 54.0779 82.4519 55.0078 81.6476C55.9377 80.8226 58.7893 79.7915 58.7893 79.7915C58.7893 79.7915 60.9177 75.2543 61.4757 74.6563C62.0336 74.0582 62.5089 74.2232 62.5089 74.2232L62.4469 68.2631C62.4469 68.2631 65.2985 68.428 67.9229 68.0981C70.5472 67.7681 77.511 65.8089 77.511 65.8089C77.511 65.8089 75.5479 54.3836 76.1885 51.9088C76.5811 50.4239 76.4985 48.3616 76.4571 46.8973C76.4365 46.6086 76.4365 46.3611 76.4365 46.1343C76.4365 45.5775 76.4571 45.2062 76.5605 45.1237C76.9531 44.8556 80.0733 44.4638 80.28 45.0206C80.28 45.0413 80.3007 45.0619 80.3007 45.1031C80.3833 45.7631 80.5693 49.8877 80.8999 53.2287C81.4372 51.8263 82.3464 49.434 82.801 48.1347C83.4623 46.2168 83.2969 40.9166 83.2969 40.9166L86.1279 39.1842ZM73.7295 22.5619C74.1221 22.5 74.5147 22.4381 74.8867 22.3556C74.5147 22.4175 74.1428 22.4794 73.7295 22.5619ZM74.9073 22.3556C75.3826 22.2732 75.8579 22.1907 76.3125 22.0875C75.8579 22.1907 75.3826 22.2732 74.9073 22.3556ZM76.3125 22.0875C77.2837 21.9019 78.1929 21.7163 78.9782 21.5307C78.1723 21.7163 77.2837 21.9019 76.3125 22.0875ZM79.0195 21.5307C80.2387 21.242 81.2512 20.9945 82.0158 20.7677C81.2512 20.9739 80.2387 21.242 79.0195 21.5307ZM82.1398 20.7264C82.2637 20.6852 82.3877 20.6645 82.5117 20.6233C82.4084 20.6645 82.2844 20.6852 82.1398 20.7264Z" fill="#FFDDD1"/>
<path d="M52.0735 158.572C52.0735 158.572 43.188 149.498 42.9813 147.621C42.754 145.765 43.8492 135.701 43.5393 133.515C43.2086 131.329 44.7378 114.913 44.7378 114.913C49.9864 130.855 52.0735 158.572 52.0735 158.572Z" fill="#00104F"/>
<path d="M83.2763 71.1916L84.5368 75.3575C76.0439 76.038 58.7893 79.7502 58.7893 79.7502C58.7893 79.7502 60.9177 75.2131 61.4757 74.615C61.641 74.4294 61.8063 74.3263 61.9509 74.2644C61.9509 74.2644 62.0543 74.2232 62.2609 74.1613C62.4262 74.1407 62.5089 74.1819 62.5089 74.1819V74.0994C64.8026 73.4395 73.4815 71.2122 83.2763 71.1916Z" fill="url(#paint6_linear)"/>
<path d="M83.173 70.8616L83.2763 71.1916C73.4815 71.2328 64.8026 73.4601 62.5295 74.0788L62.4675 68.2012C62.4675 68.2012 65.3192 68.3662 67.9435 68.0362C70.5679 67.7062 77.5317 65.747 77.5317 65.747C77.5317 65.747 75.5686 54.3217 76.2092 51.8469C76.6018 50.3621 76.5191 48.3204 76.4778 46.8561C76.6018 50.0321 77.387 56.3841 77.8829 57.209C78.2756 57.8896 79.6394 57.7864 80.6313 57.6008C82.2844 66.9019 83.173 70.8616 83.173 70.8616ZM61.9509 74.2438C62.0749 74.182 62.1782 74.1613 62.2609 74.1407C62.0749 74.2026 61.9509 74.2438 61.9509 74.2438Z" fill="url(#paint7_linear)"/>
<path d="M62.4882 68.2012C62.4882 68.2012 57.1155 63.1072 53.7266 55.456C50.3377 47.8048 47.1555 42.154 47.1555 42.154L50.3377 37.8231C50.3377 37.8231 48.8499 35.472 49.1392 34.379C49.4078 33.286 51.5982 29.0788 51.5982 29.0788C51.5982 29.0788 57.7975 24.4386 67.9435 23.3249C78.0896 22.2319 83.8342 20.2108 83.8342 20.2108C83.8342 20.2108 84.7641 21.572 83.8962 24.7479C83.0283 27.9239 82.9663 28.027 82.9663 28.027L88.4423 25.6141C88.4423 25.6141 92.1618 32.0486 86.1692 39.1636L83.4002 40.8341C83.4002 40.8341 83.5656 46.1343 82.9043 48.0522C82.4497 49.3515 81.5405 51.7438 81.0032 53.1462C80.6519 49.7846 80.466 45.6806 80.404 45.0206C80.404 44.9794 80.404 44.9588 80.3833 44.9381C80.156 44.3813 77.0357 44.7731 76.6638 45.0412C76.5604 45.1237 76.5398 45.495 76.5398 46.0518C76.5398 46.2786 76.5398 46.5261 76.5604 46.8149C76.6018 48.2791 76.6844 50.3414 76.2918 51.8263C75.6306 54.2805 77.6143 65.7264 77.6143 65.7264C77.6143 65.7264 70.6505 67.7062 68.0262 68.0156C65.3398 68.3662 62.4882 68.2012 62.4882 68.2012Z" fill="url(#paint8_linear)"/>
<path d="M49.3252 39.1842L50.3171 37.8437C50.3171 37.8437 48.8293 35.4927 49.1186 34.3996C49.3872 33.3066 51.5776 29.0995 51.5776 29.0995C51.5776 29.0995 57.7768 24.4592 67.9229 23.3456C78.069 22.2525 83.8136 20.2314 83.8136 20.2314C83.8136 20.2314 84.7435 21.5926 83.8756 24.7686C83.0077 27.9446 82.9457 28.0477 82.9457 28.0477L88.4217 25.6347C88.4217 25.6347 89.8888 28.1714 89.4962 31.8217C87.0578 33.7809 83.7309 35.6783 79.3708 36.627C68.3982 39.0399 62.3849 39.143 62.3849 39.143C62.3849 39.143 65.8358 40.3392 69.2867 39.8029C69.2867 39.8029 59.6366 42.5458 53.5613 40.6279C51.6189 40.0298 50.2757 39.5555 49.3252 39.1842Z" fill="url(#paint9_linear)"/>
<path d="M77.9036 57.209C78.5442 58.302 81.6851 57.3533 81.6851 57.3533C80.8379 55.3735 80.4453 45.2062 80.342 44.9587C80.1147 44.4019 76.9944 44.7938 76.6225 45.0619C76.1059 45.4331 77.2837 56.1159 77.9036 57.209Z" fill="url(#paint10_linear)"/>
<path d="M80.6519 57.6008C82.2844 66.9019 83.173 70.8616 83.173 70.8616L88.7729 68.2837C88.7729 68.2837 88.8349 62.1586 88.6696 57.9927C88.5043 53.8268 86.1486 39.1636 86.1486 39.1636L83.3796 40.8341C83.3796 40.8341 83.5449 46.1343 82.8837 48.0522C82.4291 49.3515 81.5198 51.7438 80.9826 53.1462C81.1685 55.0023 81.4165 56.6315 81.7058 57.3121C81.6852 57.3327 81.2305 57.4771 80.6519 57.6008Z" fill="url(#paint11_linear)"/>
<path d="M97.6792 118.687C96.9146 116.068 91.8726 111.139 90.6534 107.963C89.4549 104.787 81.0032 84.5761 94.7655 79.6884C90.1574 77.6467 84.5368 75.3369 84.5368 75.3369C76.0439 76.0174 58.7893 79.7296 58.7893 79.7296C58.7893 79.7296 55.9377 80.7608 55.0078 81.5857C54.0779 82.4106 45.6883 86.2259 45.6883 86.2259C41.8448 97.8162 44.6964 114.892 44.6964 114.892C49.9658 130.813 52.0322 158.552 52.0322 158.552L49.5732 174.432C59.6986 178.494 71.5804 180.742 85.4047 179.732C85.4667 179.732 85.5287 179.732 85.5907 179.711C94.2283 179.072 101.667 178.35 108.115 177.566C107.412 170.513 106.379 161.748 105.552 160.717C104.126 158.964 102.432 125.493 102.432 125.493C102.432 125.493 98.4437 121.327 97.6792 118.687Z" fill="url(#paint12_linear)"/>
<path d="M48.478 130.587C50.999 144.466 52.0529 158.572 52.0529 158.572L49.5938 174.452C59.7192 178.515 71.6011 180.763 85.4254 179.752C85.4874 179.752 85.5493 179.752 85.6113 179.732C91.4179 179.299 96.6873 178.824 101.481 178.329C96.8939 170.823 86.7892 155.953 77.0151 153.85C65.9598 151.457 75.1966 131.742 48.478 130.587Z" fill="#00104F"/>
<path d="M97.6792 118.687C96.9146 116.068 91.8725 111.139 90.6534 107.963C89.8681 105.921 86.0659 96.7438 87.2025 89.175C82.3671 108.561 106.544 164.636 106.565 164.656C106.234 162.615 105.883 161.15 105.573 160.758C104.147 159.005 102.453 125.534 102.453 125.534C102.453 125.534 98.4437 121.327 97.6792 118.687Z" fill="#00104F"/>
<path d="M133.511 18.4785H194.594C196.04 18.4785 197.218 19.654 197.218 21.0976V83.6893C197.218 85.1329 196.04 86.3084 194.594 86.3084H153.245V35.7608C153.245 34.9152 152.563 34.2346 151.716 34.2346H130.886V21.0976C130.886 19.654 132.064 18.4785 133.511 18.4785Z" fill="url(#paint13_linear)"/>
<path d="M197.218 59.0651V83.7099C197.218 85.1535 196.04 86.329 194.594 86.329H153.245V68.0568C168.764 61.313 188.064 64.6334 197.218 59.0651Z" fill="#FF8800"/>
<path d="M144.979 2.72226H256.359C257.847 2.72226 259.045 3.93903 259.045 5.40329V67.8712C259.045 69.3561 257.826 70.5522 256.359 70.5522H197.218V21.0976C197.218 19.654 196.04 18.4784 194.594 18.4784H142.293V5.40329C142.293 3.91841 143.491 2.72226 144.979 2.72226Z" fill="url(#paint14_linear)"/>
<path d="M259.045 38.5655V67.8712C259.045 69.3561 257.826 70.5522 256.359 70.5522H197.218V59.0444C198.851 58.0545 200.152 56.7759 201.062 55.1054C207.591 43.1026 231.727 35.7608 259.045 38.5655Z" fill="#FF7C01"/>
<path d="M204.926 70.5522H197.218V30.0481H203.521C204.285 30.0481 204.905 30.6668 204.905 31.4299V70.5522H204.926Z" fill="#FFE7CC" fill-opacity="0.502"/>
<path d="M204.926 70.5522H197.218V58.0752C199.057 56.4872 200.731 55.1054 201.062 55.1054C201.413 55.1054 203.149 56.549 204.905 58.137V70.5522H204.926Z" fill="#FFAD2A"/>
<path d="M197.218 48.4235V43.3089C197.797 44.0101 198.148 44.8969 198.148 45.8662C198.148 46.8355 197.797 47.7223 197.218 48.4235Z" fill="#FFAD2A"/>
<path d="M138.759 22.5619H150.931C152.026 22.5619 152.894 23.4487 152.894 24.5211C152.894 25.6141 152.005 26.5009 150.931 26.5009H138.759C137.664 26.5009 136.796 25.6141 136.796 24.5211C136.776 23.4487 137.664 22.5619 138.759 22.5619ZM177.174 22.5619H189.345C190.44 22.5619 191.308 23.4487 191.308 24.5211C191.308 25.6141 190.42 26.5009 189.345 26.5009H177.174C176.079 26.5009 175.211 25.6141 175.211 24.5211C175.211 23.4487 176.099 22.5619 177.174 22.5619ZM157.956 22.5619H170.127C171.223 22.5619 172.091 23.4487 172.091 24.5211C172.091 25.6141 171.202 26.5009 170.127 26.5009H157.956C156.861 26.5009 155.993 25.6141 155.993 24.5211C155.993 23.4487 156.882 22.5619 157.956 22.5619Z" fill="#FFE8C4" fill-opacity="0.502"/>
<path d="M137.871 29.5532H190.213C190.812 29.5532 191.308 30.0481 191.308 30.6462V34.6471C191.308 35.2452 190.812 35.7401 190.213 35.7401H153.245C153.224 34.9152 152.542 34.2346 151.716 34.2346H136.776V30.6462C136.776 30.0481 137.272 29.5532 137.871 29.5532Z" fill="#FFE8C4" fill-opacity="0.502"/>
<path d="M153.245 39.2255H168.412C168.991 39.2255 169.487 39.6998 169.487 40.2979V73.7076C169.487 74.2851 169.012 74.78 168.412 74.78H153.266V39.2255H153.245Z" fill="#FFE8C4" fill-opacity="0.502"/>
<path d="M169.487 60.8387V73.687C169.487 74.2644 169.012 74.7594 168.412 74.7594H153.266V59.2507C156.283 61.643 159.568 64.3653 159.568 64.3653C159.568 64.3653 165.933 58.5082 166.532 58.5082C166.801 58.5082 168.123 59.6219 169.487 60.8387Z" fill="#FFB224"/>
<path d="M161.201 48.341C162.895 48.341 164.279 49.7227 164.279 51.4139C164.279 53.105 162.895 54.4867 161.201 54.4867C159.506 54.4867 158.122 53.105 158.122 51.4139C158.122 49.7021 159.506 48.341 161.201 48.341Z" fill="#FFB123"/>
<path d="M172.855 39.2255H190.254C190.833 39.2255 191.329 39.6998 191.329 40.2979V73.7076C191.329 74.2851 190.854 74.78 190.254 74.78H172.855C172.277 74.78 171.781 74.3057 171.781 73.7076V40.2979C171.781 39.7205 172.256 39.2255 172.855 39.2255Z" fill="url(#paint15_linear)" fill-opacity="0.502"/>
<path d="M153.245 77.9354H189.593C190.544 77.9354 191.308 78.7191 191.308 79.6471C191.308 80.5958 190.523 81.3588 189.593 81.3588H153.245V77.9354Z" fill="#FFE8C4" fill-opacity="0.502"/>
<path d="M114.706 32.2548H152.976C153.534 32.2548 154.051 32.4817 154.423 32.8529C154.795 33.2241 155.022 33.7191 155.022 34.2759V102.065C155.022 102.621 154.795 103.116 154.423 103.488C154.051 103.859 153.534 104.086 152.976 104.086H114.706C114.148 104.086 113.632 103.859 113.26 103.488C112.888 103.116 112.661 102.621 112.661 102.065V34.2553C112.661 33.6985 112.888 33.2035 113.26 32.8323C113.632 32.4817 114.148 32.2548 114.706 32.2548ZM152.976 33.0591H114.706C114.376 33.0591 114.066 33.2035 113.838 33.4097C113.611 33.616 113.487 33.9253 113.487 34.2553V102.044C113.487 102.374 113.632 102.683 113.838 102.89C114.066 103.116 114.376 103.24 114.706 103.24H152.976C153.307 103.24 153.617 103.096 153.844 102.89C154.071 102.663 154.195 102.374 154.195 102.044V34.2553C154.195 33.9253 154.051 33.616 153.844 33.4097C153.617 33.1829 153.307 33.0591 152.976 33.0591Z" fill="#F6EBFF"/>
<path d="M196.185 19.0146H235.24C235.839 19.0146 236.335 19.5096 236.335 20.1077V24.1086C236.335 24.7067 235.839 25.2016 235.24 25.2016H197.218V21.0976C197.218 20.252 196.805 19.489 196.185 19.0146Z" fill="#FFE7CC" fill-opacity="0.502"/>
<path d="M209.782 30.1719H234.62C235.571 30.1719 236.335 30.9556 236.335 31.8836C236.335 32.8323 235.55 33.5953 234.62 33.5953H209.782C208.831 33.5953 208.067 32.8117 208.067 31.8836C208.067 30.9556 208.831 30.1719 209.782 30.1719Z" fill="#FFE7CC" fill-opacity="0.502"/>
<path d="M209.782 35.5752H226.623C227.574 35.5752 228.338 36.3588 228.338 37.2869C228.338 38.2356 227.553 38.9986 226.623 38.9986H209.782C208.831 38.9986 208.067 38.2149 208.067 37.2869C208.067 36.3382 208.831 35.5752 209.782 35.5752Z" fill="#FFE7CC" fill-opacity="0.502"/>
<path d="M209.782 40.9578H229.785C230.735 40.9578 231.5 41.7415 231.5 42.6696C231.5 43.6182 230.715 44.3813 229.785 44.3813H209.782C208.831 44.3813 208.067 43.5976 208.067 42.6696C208.067 41.7415 208.831 40.9578 209.782 40.9578Z" fill="#FFE7CC" fill-opacity="0.502"/>
<path d="M208.067 47.1861H236.356V70.5523H208.067V47.1861Z" fill="#FFF1DB" fill-opacity="0.502"/>
<path d="M187.919 141.641L184.2 132.319C184.2 132.319 180.583 132.587 179.695 134.175C178.827 135.763 173.785 138.857 172.834 135.33C171.884 131.783 178.269 130.195 180.067 130.463C181.885 130.731 182.485 128.339 182.257 127.885C182.03 127.452 176.451 117.099 176.451 117.099C176.451 117.099 172.834 118.254 171.347 121.698C169.859 125.142 166.201 126.957 164.982 123.657C163.763 120.357 167.999 119.553 169.156 119.285C170.313 119.017 171.347 116.666 171.347 116.666C171.347 116.666 165.478 113.284 162.75 113.16C160.002 113.057 155.89 108.623 152.067 109.448C148.223 110.273 147.686 111.139 147.686 111.139C147.686 111.139 151.406 114.913 151.633 116.831C151.86 118.749 151.571 125.266 153.121 125.967C154.65 126.668 158.989 122.894 160.085 125.864C161.18 128.813 153.844 129.473 153.782 130.36C153.72 131.226 159.051 140.754 159.051 140.754C159.051 140.754 161.51 140.94 163.019 139.723C164.527 138.485 166.532 137.784 167.379 139.723C168.226 141.661 164.424 142.342 163.102 142.961C161.779 143.559 159.94 144.239 159.94 144.239C159.94 144.239 160.725 151.045 161.882 153.623C168.867 148.776 178.207 144.157 185.832 142.363C185.997 142.321 186.183 142.28 186.349 142.218H186.369C186.535 142.177 186.721 142.115 186.886 142.053L186.927 142.033C187.093 141.971 187.279 141.909 187.465 141.847L187.506 141.826C187.63 141.744 187.775 141.703 187.919 141.641Z" fill="url(#paint16_linear)"/>
<path d="M174.178 146.549L174.198 146.528H174.219H174.24H174.26H174.281L174.55 146.405H174.57H174.591H174.612H174.632H174.653H174.674H174.694H174.715H174.736H174.756H174.777H174.798H174.818H174.839H174.86H174.88L175.066 146.322H175.087H175.108H175.128H175.149C172.545 140.733 166.139 127.741 159.113 118.955C158.969 118.769 158.721 118.749 158.535 118.893C158.349 119.038 158.328 119.285 158.473 119.471C165.209 128.071 171.574 141.001 174.178 146.549Z" fill="url(#paint17_linear)"/>
<path d="M193.085 138.65C193.003 136.34 192.879 131.494 193.416 130.092C194.118 128.236 194.408 126.379 193.023 125.988C191.659 125.596 186.287 128.277 186.287 124.173C186.287 120.069 191.763 125.369 192.486 124.73C193.189 124.07 193.685 114.067 193.685 114.067C193.685 114.067 191.597 114.067 189.841 115.387C188.085 116.707 184.572 117.243 184.572 113.902C184.572 110.561 189.944 112.974 191.473 112.541C193.003 112.108 193.23 111.84 193.23 111.84C193.23 111.84 193.829 108.994 191.639 103.9C189.448 98.8061 190.378 92.0211 190.378 92.0211C190.378 92.0211 186.535 91.4642 181.286 97.445C176.017 103.405 175.314 108.705 175.314 108.705C175.314 108.705 175.707 110.355 177.835 110.293C179.964 110.231 181.451 111.324 181.079 112.582C180.687 113.841 177.732 114.542 176.575 113.614C175.417 112.686 173.992 113.284 173.992 113.284C173.992 113.284 172.793 115.676 173 119.264C174.591 117.676 176.43 117.099 176.43 117.099C176.43 117.099 182.03 127.431 182.237 127.885C182.464 128.318 181.844 130.731 180.046 130.463C178.228 130.195 171.863 131.783 172.814 135.33C173.764 138.877 178.786 135.763 179.674 134.175C180.542 132.587 184.179 132.319 184.179 132.319L187.878 141.599L188.415 141.434C189.882 140.754 191.473 139.826 193.085 138.65Z" fill="url(#paint18_linear)"/>
<path d="M181.265 126.008L181.286 126.029L181.307 126.049L181.327 126.07L181.348 126.091L181.369 126.111L181.389 126.132L181.41 126.153L181.431 126.173L181.451 126.194L181.472 126.214L181.493 126.235L181.513 126.256L181.534 126.276L181.555 126.297V126.318L181.575 126.338L181.596 126.359L181.617 126.379L181.637 126.4L181.658 126.421L181.679 126.441L181.699 126.462L181.72 126.483L181.741 126.503L181.761 126.524L181.782 126.544L181.803 126.565L181.823 126.586L181.844 126.606V126.627L181.865 126.648L181.885 126.668L181.906 126.689L181.927 126.709L181.947 126.73L181.968 126.751V126.771L181.989 126.792L182.009 126.813L182.03 126.833L182.051 126.854L182.071 126.874L182.092 126.895L182.113 126.916V126.936V126.957V126.978V126.998V127.019V127.039V127.06V127.081V127.101V127.122V127.143V127.163V127.184V127.204V127.225V127.246V127.266V127.287V127.308V127.328C182.712 119.058 183.952 107.53 186.514 99.7548C186.576 99.5279 186.473 99.3011 186.245 99.2392C186.018 99.1773 185.791 99.2805 185.729 99.5073C183.167 106.994 181.906 117.821 181.265 126.008ZM181.844 129.576L181.823 129.617L181.803 129.638L181.761 129.679L181.741 129.7L181.699 129.741L181.679 129.762L181.658 129.782L181.637 129.803L181.617 129.824L181.596 129.844L181.575 129.865L181.555 129.885L181.534 129.906L181.513 129.927L181.493 129.947L181.472 129.968L181.451 129.989L181.431 130.009L181.41 130.03L181.389 130.05L181.369 130.071L181.348 130.092L181.327 130.112L181.307 130.133L181.286 130.154L181.265 130.174L181.245 130.195L181.224 130.215L181.203 130.236L181.162 130.257L181.141 130.277L181.121 130.298L181.1 130.319L181.059 130.339H181.038C181.017 130.339 181.017 130.36 180.997 130.36H180.976C180.955 130.36 180.955 130.38 180.935 130.38H180.914C180.893 130.38 180.873 130.401 180.873 130.401C180.811 131.432 180.769 132.381 180.728 133.226C180.749 133.206 180.769 133.206 180.811 133.185H180.831C180.893 133.165 180.935 133.123 180.997 133.103H181.017C181.038 133.082 181.079 133.082 181.1 133.061H181.121H181.141C181.183 133.041 181.245 133.02 181.286 133H181.307H181.327H181.348H181.369L181.389 132.979H181.41H181.431H181.451H181.472H181.493L181.534 132.958H181.555H181.575H181.596H181.617H181.637H181.658H181.679L181.844 129.576Z" fill="url(#paint19_linear)"/>
<path d="M222.511 90.3712C225.9 90.3712 228.648 93.1141 228.648 96.4964C228.648 99.8786 225.9 102.621 222.511 102.621C219.122 102.621 216.374 99.8786 216.374 96.4964C216.374 93.1141 219.122 90.3712 222.511 90.3712Z" fill="white"/>
<path d="M94.7655 79.709C97.7411 81.0289 100.303 82.2457 100.613 82.6375C101.378 83.6274 119.583 119.079 119.583 119.079C119.583 119.079 123.964 110.335 124.956 108.582C125.948 106.829 127.807 99.5486 127.807 99.5486L128.737 99.2186H128.758H128.779H128.82H128.861L128.923 99.2392H128.944L129.006 99.2599H129.027L129.089 99.2805H129.109L129.192 99.3011H129.213L129.295 99.3217H129.316L129.398 99.3424H129.44L129.522 99.363H129.564L129.646 99.3836H129.688L129.77 99.4042L129.832 99.4248L129.915 99.4455L129.977 99.4661L130.08 99.4867L130.142 99.5073L130.246 99.528L130.328 99.5486L130.432 99.5692L130.514 99.5898L130.597 99.6104L130.68 99.6311L130.762 99.6517L130.866 99.6723L130.948 99.6929L131.052 99.7136L131.134 99.7342L131.238 99.7548L131.32 99.7754L131.444 99.7961L131.527 99.8167L131.651 99.8373L131.734 99.8579L131.878 99.8785L131.94 99.8992L132.085 99.9404L132.147 99.961L132.291 100.002L132.353 100.023L132.519 100.064L132.581 100.085L132.746 100.126L132.808 100.147L132.973 100.188L133.015 100.209L133.201 100.25L133.242 100.27L133.428 100.312H133.469L133.655 100.353H133.697L133.903 100.394H133.924L134.131 100.456H134.151L134.358 100.518H134.379L134.606 100.58L134.833 100.642L135.06 100.703L135.288 100.765L135.494 100.827H135.515L135.722 100.889H135.742L135.949 100.951H135.97L136.156 101.013L136.3 101.054L136.362 101.075L136.404 101.095L136.59 101.137L136.776 101.198H136.796L136.962 101.24L137.024 101.26L137.148 101.302L137.23 101.322L137.354 101.363L137.437 101.384L137.54 101.425L137.643 101.446L137.726 101.467L137.829 101.508L137.912 101.528L138.015 101.57L138.098 101.59L138.181 101.611L138.284 101.652L138.367 101.673L138.47 101.714L138.532 101.735L138.635 101.776L138.697 101.797L138.78 101.838L138.863 101.858L138.925 101.879L138.987 101.9L139.069 101.941L139.131 101.962L139.193 101.982L139.255 102.003L139.317 102.023L139.379 102.044L139.421 102.065C139.441 102.085 139.483 102.085 139.503 102.106C139.524 102.126 139.565 102.147 139.586 102.147L141.611 110.355C141.611 110.355 138.015 112.376 137.933 112.809C137.85 113.242 127.828 140.403 127.828 140.403C127.828 140.403 126.63 143.146 121.691 143.146C116.752 143.146 114.892 142.445 114.892 142.445L102.453 125.534C102.453 125.534 98.4437 121.327 97.6791 118.687C96.9145 116.068 91.8725 111.139 90.6533 107.963C89.4548 104.808 81.0032 84.5761 94.7655 79.709Z" fill="url(#paint20_linear)"/>
<path d="M167.668 149.931C162.296 143.311 153.431 133.618 143.161 127.39C143.14 127.369 143.119 127.369 143.099 127.369C143.099 127.369 142.066 126.524 141.797 126.936C141.528 127.349 142.334 127.926 142.334 127.926L143.615 128.669C143.615 128.648 143.595 128.627 143.595 128.607C153.348 134.753 161.758 143.951 166.945 150.344C167.193 150.199 167.441 150.076 167.668 149.931Z" fill="url(#paint21_linear)"/>
<path d="M163.102 145.786C161.531 145.539 157.502 145.147 157.605 147.621C157.708 150.323 164.093 148.941 165.54 148.591C164.775 147.704 163.949 146.755 163.102 145.786Z" fill="url(#paint22_linear)"/>
<path d="M163.391 144.899C163.205 143.414 163.06 140.197 165.106 139.537C167.379 138.795 166.305 145.765 165.933 147.828C165.147 146.9 164.3 145.91 163.391 144.899Z" fill="url(#paint23_linear)"/>
<path d="M155.208 137.681C153.617 137.413 150.125 137.042 150.476 139.166C150.869 141.476 156.076 140.506 157.75 140.135C156.944 139.31 156.076 138.506 155.208 137.681Z" fill="url(#paint24_linear)"/>
<path d="M155.518 136.877C155.229 135.516 154.795 132.278 156.944 131.597C159.403 130.834 158.349 137.908 158.122 139.352C157.274 138.506 156.407 137.681 155.518 136.877Z" fill="url(#paint25_linear)"/>
<path d="M146.922 130.855C146.343 130.917 145.413 131.04 144.628 131.35C141.136 132.278 143.181 134.773 145.434 134.175C146.922 133.928 148.719 133.144 149.505 132.793C148.657 132.133 147.79 131.473 146.922 130.855Z" fill="url(#paint26_linear)"/>
<path d="M147.087 129.968C146.942 128.792 146.86 126.276 148.637 125.74C150.662 125.142 150.104 130.587 149.897 132.072C148.967 131.35 148.038 130.649 147.087 129.968Z" fill="url(#paint27_linear)"/>
<path d="M143.863 129.267C144.07 129.205 144.235 129.164 144.38 129.122C144.132 128.957 143.863 128.792 143.595 128.627C143.698 128.834 143.781 129.04 143.863 129.267Z" fill="url(#paint28_linear)"/>
<path d="M142.913 127.081C142.851 126.07 142.81 123.595 143.905 123.368C145.289 123.08 144.979 128.524 144.979 128.524H144.959C144.38 128.132 143.781 127.761 143.181 127.39C143.14 127.369 143.099 127.349 143.057 127.349C142.995 127.246 142.954 127.163 142.913 127.081Z" fill="url(#paint29_linear)"/>
<path d="M143.863 129.267C143.863 129.267 139.028 130.917 138.78 129.597C138.532 128.277 142.334 127.926 142.334 127.926L144.359 129.122L143.863 129.267Z" fill="url(#paint30_linear)"/>
<path d="M177.835 144.94C175.108 138.217 171.367 130.69 166.511 124.379C166.491 124.358 166.491 124.338 166.47 124.338C166.47 124.338 165.809 123.183 165.416 123.472C165.023 123.76 165.561 124.585 165.561 124.585L166.47 125.74C166.47 125.72 166.47 125.699 166.47 125.678C170.995 131.762 174.508 138.877 177.091 145.25C177.339 145.147 177.587 145.044 177.835 144.94Z" fill="url(#paint31_linear)"/>
<path d="M173.992 138.32C172.607 137.495 169.487 135.887 169.053 137.99C168.578 140.28 173.806 141.249 175.5 141.517C175.025 140.465 174.529 139.393 173.992 138.32Z" fill="url(#paint32_linear)"/>
<path d="M174.591 137.66C174.818 136.299 175.583 133.103 177.815 133.247C180.377 133.433 176.843 139.64 176.12 140.898C175.624 139.846 175.128 138.753 174.591 137.66Z" fill="url(#paint33_linear)"/>
<path d="M168.743 128.957C168.185 128.792 167.276 128.586 166.429 128.586C162.833 128.194 163.825 131.267 166.16 131.515C167.648 131.824 169.59 131.742 170.458 131.7C169.9 130.772 169.322 129.865 168.743 128.957Z" fill="url(#paint34_linear)"/>
<path d="M169.218 128.194C169.508 127.039 170.334 124.668 172.194 124.812C174.302 124.977 171.801 129.865 171.099 131.164C170.479 130.174 169.859 129.164 169.218 128.194Z" fill="url(#paint35_linear)"/>
<path d="M166.47 126.379C166.677 126.4 166.863 126.421 167.007 126.421C166.821 126.173 166.656 125.926 166.47 125.678C166.47 125.926 166.47 126.153 166.47 126.379Z" fill="url(#paint36_linear)"/>
<path d="M166.367 124.008C166.677 123.039 167.524 120.708 168.619 120.894C170.003 121.121 167.751 126.091 167.751 126.091C167.338 125.513 166.925 124.956 166.491 124.4C166.47 124.358 166.429 124.338 166.387 124.297C166.387 124.193 166.387 124.09 166.367 124.008Z" fill="url(#paint37_linear)"/>
<path d="M166.47 126.379C166.47 126.379 161.366 126.173 161.614 124.853C161.862 123.533 165.54 124.585 165.54 124.585L167.007 126.421L166.47 126.379Z" fill="url(#paint38_linear)"/>
<path d="M165.478 101.487C166.222 101.487 166.883 101.797 167.379 102.271C167.854 102.745 168.164 103.426 168.164 104.168C168.164 104.911 167.854 105.571 167.379 106.066C166.904 106.54 166.222 106.849 165.478 106.849C164.734 106.849 164.073 106.54 163.577 106.066C163.102 105.591 162.792 104.911 162.792 104.168C162.792 103.426 163.102 102.766 163.577 102.271C164.052 101.776 164.734 101.487 165.478 101.487ZM166.821 102.807C166.47 102.456 165.995 102.25 165.457 102.25C164.92 102.25 164.445 102.456 164.094 102.807C163.742 103.158 163.536 103.632 163.536 104.168C163.536 104.704 163.742 105.179 164.094 105.529C164.445 105.88 164.92 106.086 165.457 106.086C165.995 106.086 166.47 105.88 166.821 105.529C167.172 105.179 167.379 104.704 167.379 104.168C167.4 103.632 167.172 103.137 166.821 102.807Z" fill="#F6EBFF"/>
<path d="M146.178 116.357C146.612 116.357 147.004 116.542 147.294 116.81C147.583 117.099 147.748 117.491 147.748 117.924C147.748 118.357 147.562 118.749 147.294 119.038C147.004 119.326 146.612 119.491 146.178 119.491C145.744 119.491 145.351 119.306 145.062 119.038C144.773 118.749 144.607 118.357 144.607 117.924C144.607 117.491 144.793 117.099 145.062 116.81C145.351 116.542 145.744 116.357 146.178 116.357ZM146.756 117.367C146.612 117.223 146.405 117.12 146.178 117.12C145.95 117.12 145.744 117.223 145.599 117.367C145.455 117.511 145.351 117.718 145.351 117.945C145.351 118.171 145.455 118.378 145.599 118.522C145.744 118.666 145.95 118.769 146.178 118.769C146.405 118.769 146.612 118.687 146.756 118.522C146.901 118.378 147.004 118.171 147.004 117.945C147.004 117.718 146.901 117.511 146.756 117.367Z" fill="#F6EBFF"/>
<path d="M38.5799 133.763C39.4891 133.763 40.3157 134.134 40.8943 134.711C41.4935 135.309 41.8655 136.114 41.8655 137.021C41.8655 137.929 41.4935 138.753 40.8943 139.331C40.295 139.929 39.4891 140.28 38.5799 140.28C37.6707 140.28 36.8441 139.908 36.2655 139.331C35.6662 138.733 35.2943 137.929 35.2943 137.021C35.2943 136.114 35.6662 135.289 36.2655 134.711C36.8441 134.134 37.6707 133.763 38.5799 133.763ZM40.357 135.247C39.9024 134.794 39.2618 134.505 38.5592 134.505C37.8566 134.505 37.2367 134.794 36.7614 135.247C36.3068 135.701 36.0175 136.341 36.0175 137.042C36.0175 137.743 36.3068 138.362 36.7614 138.836C37.216 139.29 37.8566 139.578 38.5592 139.578C39.2618 139.578 39.8817 139.29 40.357 138.836C40.8116 138.382 41.1009 137.743 41.1009 137.042C41.1009 136.341 40.8116 135.701 40.357 135.247Z" fill="#F6EBFF"/>
<path d="M179.075 120.956C179.819 120.956 180.501 121.265 180.976 121.739C181.472 122.234 181.761 122.894 181.761 123.637C181.761 124.379 181.451 125.06 180.976 125.534C180.48 126.029 179.819 126.318 179.075 126.318C178.331 126.318 177.649 126.008 177.174 125.534C176.678 125.039 176.389 124.379 176.389 123.637C176.389 122.894 176.699 122.214 177.174 121.739C177.67 121.265 178.331 120.956 179.075 120.956ZM180.46 122.275C180.108 121.925 179.612 121.698 179.075 121.698C178.538 121.698 178.042 121.925 177.691 122.275C177.339 122.626 177.112 123.121 177.112 123.657C177.112 124.193 177.339 124.688 177.691 125.039C178.042 125.39 178.538 125.616 179.075 125.616C179.612 125.616 180.108 125.39 180.46 125.039C180.811 124.688 181.038 124.193 181.038 123.657C181.038 123.121 180.811 122.626 180.46 122.275Z" fill="#F6EBFF"/>
<path d="M149.877 152.612C150.621 152.612 151.302 152.922 151.778 153.396C152.274 153.891 152.563 154.551 152.563 155.293C152.563 156.036 152.253 156.716 151.778 157.191C151.282 157.686 150.621 157.974 149.877 157.974C149.133 157.974 148.451 157.665 147.976 157.191C147.48 156.696 147.19 156.036 147.19 155.293C147.19 154.551 147.5 153.87 147.976 153.396C148.471 152.901 149.133 152.612 149.877 152.612ZM151.261 153.932C150.91 153.582 150.414 153.355 149.877 153.355C149.339 153.355 148.843 153.582 148.492 153.932C148.141 154.283 147.914 154.778 147.914 155.314C147.914 155.85 148.141 156.345 148.492 156.696C148.843 157.046 149.339 157.273 149.877 157.273C150.414 157.273 150.91 157.046 151.261 156.696C151.612 156.345 151.84 155.85 151.84 155.314C151.84 154.757 151.612 154.283 151.261 153.932Z" fill="#F6EBFF"/>
<path d="M129.605 94.1659C129.109 96.8882 128.717 99.198 128.717 99.198C128.717 99.198 137.189 100.951 139.4 102.065C139.462 102.085 139.503 102.126 139.565 102.147L139.586 102.065L140.165 99.7342C141.156 98.1668 140.805 94.5784 140.805 94.5784C140.805 94.5784 141.115 94.3927 141.508 94.1453C142.128 93.7534 142.934 93.2378 142.975 93.176C143.016 93.0935 142.872 92.516 142.748 92.0005C142.665 91.6911 142.582 91.3818 142.541 91.258C142.438 90.9074 142.314 90.928 142.314 90.928L141.28 90.9693C141.28 90.9693 142.892 90.5568 143.037 90.4125C143.119 90.33 142.913 89.4432 142.706 88.5564C142.582 88.0614 142.458 87.5664 142.376 87.2365C142.334 87.0715 142.293 86.9271 142.272 86.8653C142.169 86.4322 141.838 86.5353 141.838 86.5353L139.607 87.1746C139.607 87.1746 140.95 85.9372 141.012 85.566C141.053 85.3391 140.35 84.4317 139.71 83.7924C139.317 83.4005 138.966 83.1118 138.801 83.1118C138.615 83.1118 138.201 83.4212 137.767 83.7924C137.106 84.3492 136.404 85.0298 136.404 85.0298C136.404 85.0298 136.486 84.5142 136.61 83.7924C136.714 83.1531 136.838 82.3281 136.962 81.5444C137.106 80.5339 137.251 79.5852 137.292 79.1109C137.396 77.8529 135.164 76.4299 135.164 76.4299C135.164 76.4299 134.172 79.049 133.201 81.5444C132.891 82.3281 132.581 83.1118 132.312 83.7924C131.961 84.6586 131.672 85.3597 131.486 85.7516C131.362 86.0197 131.217 86.5353 131.031 87.2365C130.928 87.6283 130.824 88.082 130.721 88.5564C130.494 89.5875 130.266 90.7837 130.018 92.0005C129.874 92.7223 129.729 93.4441 129.605 94.1659Z" fill="url(#paint39_linear)"/>
<path d="M41.5555 157.046C42.4647 157.046 43.2913 157.418 43.8699 158.016C44.4691 158.614 44.8204 159.418 44.8204 160.325C44.8204 161.233 44.4485 162.058 43.8699 162.635C43.2706 163.233 42.4647 163.584 41.5555 163.584C40.6463 163.584 39.8197 163.213 39.2411 162.635C38.6418 162.037 38.2906 161.233 38.2906 160.325C38.2906 159.418 38.6625 158.593 39.2411 158.016C39.8404 157.418 40.6463 157.046 41.5555 157.046ZM43.3533 158.531C42.8986 158.077 42.2581 157.789 41.5555 157.789C40.8529 157.789 40.233 158.077 39.7577 158.531C39.3031 158.985 39.0138 159.624 39.0138 160.325C39.0138 161.027 39.3031 161.645 39.7577 162.12C40.2123 162.573 40.8529 162.862 41.5555 162.862C42.2581 162.862 42.878 162.573 43.3533 162.12C43.8079 161.666 44.0972 161.027 44.0972 160.325C44.0972 159.624 43.8079 158.985 43.3533 158.531Z" fill="#F6EBFF"/>
<path d="M128.551 34.2347V33.0591H129.378V34.2347H128.551ZM128.551 32.2548V19.2828C128.551 18.4166 128.903 17.6123 129.481 17.0348C130.06 16.4574 130.866 16.1068 131.734 16.1068H196.35C197.218 16.1068 198.024 16.4574 198.603 17.0348C199.181 17.6123 199.532 18.4166 199.532 19.2828V85.5041C199.532 86.3703 199.181 87.1746 198.603 87.7521C198.024 88.3295 197.218 88.6801 196.35 88.6801H155.043V87.8552H196.35C196.991 87.8552 197.59 87.5871 198.024 87.154C198.458 86.7209 198.727 86.1435 198.727 85.4835V19.2828C198.727 18.6434 198.458 18.0454 198.024 17.6123C197.59 17.1792 197.011 16.9111 196.35 16.9111H131.754C131.114 16.9111 130.514 17.1792 130.08 17.6123C129.647 18.0454 129.378 18.6228 129.378 19.2828V32.2548H128.551ZM154.216 88.6801H153.266V87.8552H154.216V88.6801Z" fill="#F6EBFF"/>
<path d="M139.338 18.4785V3.2791C139.338 2.37168 139.689 1.56737 140.289 0.969294C140.867 0.371219 141.673 0 142.562 0H258.776C259.665 0 260.471 0.371219 261.049 0.969294C261.628 1.56737 262 2.37168 262 3.2791V69.9954C262 70.9029 261.649 71.7072 261.049 72.3052C260.471 72.9033 259.665 73.2745 258.776 73.2745H197.073V72.4496H258.797C259.458 72.4496 260.058 72.1815 260.492 71.7278C260.925 71.2741 261.194 70.676 261.194 69.9954V3.2791C261.194 2.59853 260.925 1.97984 260.492 1.54675C260.058 1.11366 259.458 0.824931 258.797 0.824931H142.562C141.9 0.824931 141.301 1.09303 140.867 1.54675C140.433 2.00046 140.165 2.59853 140.165 3.2791V18.4785H139.338Z" fill="#F6EBFF"/>
</g>
<defs>
<linearGradient id="paint0_linear" x1="133.847" y1="87.2858" x2="133.848" y2="29.5467" gradientUnits="userSpaceOnUse">
<stop stop-color="#FF9D00"/>
<stop offset="1" stop-color="#FFCA29"/>
</linearGradient>
<linearGradient id="paint1_linear" x1="163.589" y1="149.385" x2="126.336" y2="121.045" gradientUnits="userSpaceOnUse">
<stop stop-color="#FF8800"/>
<stop offset="1" stop-color="#FFDC5E"/>
</linearGradient>
<linearGradient id="paint2_linear" x1="163.38" y1="151.825" x2="127.595" y2="119.587" gradientUnits="userSpaceOnUse">
<stop stop-color="#F37C00"/>
<stop offset="1" stop-color="#F3D052"/>
</linearGradient>
<linearGradient id="paint3_linear" x1="29.9419" y1="152.866" x2="72.073" y2="141.564" gradientUnits="userSpaceOnUse">
<stop stop-color="#FF8800"/>
<stop offset="1" stop-color="#FFDC5E"/>
</linearGradient>
<linearGradient id="paint4_linear" x1="22.9408" y1="152.623" x2="71.0223" y2="138.036" gradientUnits="userSpaceOnUse">
<stop stop-color="#F37C00"/>
<stop offset="1" stop-color="#F3D052"/>
</linearGradient>
<linearGradient id="paint5_linear" x1="25.0006" y1="146.248" x2="45.9932" y2="115.573" gradientUnits="userSpaceOnUse">
<stop stop-color="#FF9D00"/>
<stop offset="1" stop-color="#FFD624"/>
</linearGradient>
<linearGradient id="paint6_linear" x1="67.865" y1="75.5882" x2="85.7445" y2="73.2182" gradientUnits="userSpaceOnUse">
<stop stop-color="#00104F"/>
<stop offset="1" stop-color="#320087"/>
</linearGradient>
<linearGradient id="paint7_linear" x1="85.0829" y1="57.6279" x2="61.5892" y2="63.9356" gradientUnits="userSpaceOnUse">
<stop stop-color="#FFDDD1"/>
<stop offset="1" stop-color="#FFA3A3"/>
</linearGradient>
<linearGradient id="paint8_linear" x1="68.3389" y1="44.6214" x2="68.3392" y2="65.9574" gradientUnits="userSpaceOnUse">
<stop stop-color="#00104F"/>
<stop offset="1" stop-color="#1B0073"/>
</linearGradient>
<linearGradient id="paint9_linear" x1="78.3064" y1="29.6545" x2="45.8605" y2="36.0247" gradientUnits="userSpaceOnUse">
<stop stop-color="#002C73"/>
<stop offset="1" stop-color="#5D3294"/>
</linearGradient>
<linearGradient id="paint10_linear" x1="80.1496" y1="50.9193" x2="71.2874" y2="53.2985" gradientUnits="userSpaceOnUse">
<stop stop-color="#FFDDD1"/>
<stop offset="1" stop-color="#FFC4C4"/>
</linearGradient>
<linearGradient id="paint11_linear" x1="89.0033" y1="55.0227" x2="68.3646" y2="55.0223" gradientUnits="userSpaceOnUse">
<stop stop-color="#FFDDD1"/>
<stop offset="1" stop-color="#FFA4A4"/>
</linearGradient>
<linearGradient id="paint12_linear" x1="75.916" y1="153.708" x2="75.9162" y2="72.236" gradientUnits="userSpaceOnUse">
<stop stop-color="#00104F"/>
<stop offset="1" stop-color="#4B0091"/>
</linearGradient>
<linearGradient id="paint13_linear" x1="164.051" y1="77.8758" x2="164.051" y2="18.4717" gradientUnits="userSpaceOnUse">
<stop stop-color="#FF8800"/>
<stop offset="1" stop-color="#FFB224"/>
</linearGradient>
<linearGradient id="paint14_linear" x1="200.559" y1="70.0931" x2="200.777" y2="2.59226" gradientUnits="userSpaceOnUse">
<stop stop-color="#FF7B00"/>
<stop offset="1" stop-color="#FFAE2B"/>
</linearGradient>
<linearGradient id="paint15_linear" x1="189.425" y1="750549" x2="190.123" y2="817304" gradientUnits="userSpaceOnUse">
<stop stop-color="#FFE8C4"/>
<stop offset="1" stop-color="#FFE8C4"/>
</linearGradient>
<linearGradient id="paint16_linear" x1="172.153" y1="140.808" x2="154.009" y2="107.516" gradientUnits="userSpaceOnUse">
<stop stop-color="#FF9D00"/>
<stop offset="1" stop-color="#FFD725"/>
</linearGradient>
<linearGradient id="paint17_linear" x1="171.422" y1="141.206" x2="153.278" y2="107.914" gradientUnits="userSpaceOnUse">
<stop stop-color="#F39100"/>
<stop offset="1" stop-color="#F3CB19"/>
</linearGradient>
<linearGradient id="paint18_linear" x1="183.378" y1="130.863" x2="183.16" y2="93.8808" gradientUnits="userSpaceOnUse">
<stop stop-color="#FF8800"/>
<stop offset="1" stop-color="#FFDC5E"/>
</linearGradient>
<linearGradient id="paint19_linear" x1="183.7" y1="130.861" x2="183.482" y2="93.8789" gradientUnits="userSpaceOnUse">
<stop stop-color="#F37C00"/>
<stop offset="1" stop-color="#F3D052"/>
</linearGradient>
<linearGradient id="paint20_linear" x1="107.71" y1="120.266" x2="119.975" y2="81.9423" gradientUnits="userSpaceOnUse">
<stop stop-color="#00104F"/>
<stop offset="1" stop-color="#4B0091"/>
</linearGradient>
<linearGradient id="paint21_linear" x1="162.54" y1="144.708" x2="142.683" y2="127.341" gradientUnits="userSpaceOnUse">
<stop stop-color="#FFD900"/>
<stop offset="1" stop-color="#FFFAA3"/>
</linearGradient>
<linearGradient id="paint22_linear" x1="160.456" y1="147.092" x2="140.599" y2="129.725" gradientUnits="userSpaceOnUse">
<stop stop-color="#FFD900"/>
<stop offset="1" stop-color="#FFFAA3"/>
</linearGradient>
<linearGradient id="paint23_linear" x1="164.481" y1="142.489" x2="144.624" y2="125.123" gradientUnits="userSpaceOnUse">
<stop stop-color="#FFD900"/>
<stop offset="1" stop-color="#FFFAA3"/>
</linearGradient>
<linearGradient id="paint24_linear" x1="161.362" y1="146.055" x2="141.505" y2="128.689" gradientUnits="userSpaceOnUse">
<stop stop-color="#FFD900"/>
<stop offset="1" stop-color="#FFFAA3"/>
</linearGradient>
<linearGradient id="paint25_linear" x1="165.114" y1="141.765" x2="145.256" y2="124.399" gradientUnits="userSpaceOnUse">
<stop stop-color="#FFD900"/>
<stop offset="1" stop-color="#FFFAA3"/>
</linearGradient>
<linearGradient id="paint26_linear" x1="161.219" y1="146.219" x2="141.361" y2="128.853" gradientUnits="userSpaceOnUse">
<stop stop-color="#FFD900"/>
<stop offset="1" stop-color="#FFFAA3"/>
</linearGradient>
<linearGradient id="paint27_linear" x1="164.694" y1="142.246" x2="144.836" y2="124.879" gradientUnits="userSpaceOnUse">
<stop stop-color="#FFD900"/>
<stop offset="1" stop-color="#FFFAA3"/>
</linearGradient>
<linearGradient id="paint28_linear" x1="162.282" y1="145" x2="142.426" y2="127.635" gradientUnits="userSpaceOnUse">
<stop stop-color="#FFD900"/>
<stop offset="1" stop-color="#FFFAA3"/>
</linearGradient>
<linearGradient id="paint29_linear" x1="163.965" y1="143.079" x2="144.107" y2="125.712" gradientUnits="userSpaceOnUse">
<stop stop-color="#FFD900"/>
<stop offset="1" stop-color="#FFFAA3"/>
</linearGradient>
<linearGradient id="paint30_linear" x1="161.071" y1="146.388" x2="141.213" y2="129.021" gradientUnits="userSpaceOnUse">
<stop stop-color="#FFD900"/>
<stop offset="1" stop-color="#FFFAA3"/>
</linearGradient>
<linearGradient id="paint31_linear" x1="178.626" y1="147.338" x2="166.376" y2="123.996" gradientUnits="userSpaceOnUse">
<stop stop-color="#FFD900"/>
<stop offset="1" stop-color="#FFFAA3"/>
</linearGradient>
<linearGradient id="paint32_linear" x1="176.713" y1="148.343" x2="164.462" y2="125" gradientUnits="userSpaceOnUse">
<stop stop-color="#FFD900"/>
<stop offset="1" stop-color="#FFFAA3"/>
</linearGradient>
<linearGradient id="paint33_linear" x1="181.762" y1="145.693" x2="169.512" y2="122.35" gradientUnits="userSpaceOnUse">
<stop stop-color="#FFD900"/>
<stop offset="1" stop-color="#FFFAA3"/>
</linearGradient>
<linearGradient id="paint34_linear" x1="176.518" y1="148.444" x2="164.269" y2="125.101" gradientUnits="userSpaceOnUse">
<stop stop-color="#FFD900"/>
<stop offset="1" stop-color="#FFFAA3"/>
</linearGradient>
<linearGradient id="paint35_linear" x1="181.196" y1="145.989" x2="168.946" y2="122.647" gradientUnits="userSpaceOnUse">
<stop stop-color="#FFD900"/>
<stop offset="1" stop-color="#FFFAA3"/>
</linearGradient>
<linearGradient id="paint36_linear" x1="177.957" y1="147.69" x2="165.702" y2="124.349" gradientUnits="userSpaceOnUse">
<stop stop-color="#FFD900"/>
<stop offset="1" stop-color="#FFFAA3"/>
</linearGradient>
<linearGradient id="paint37_linear" x1="180.216" y1="146.504" x2="167.966" y2="123.161" gradientUnits="userSpaceOnUse">
<stop stop-color="#FFD900"/>
<stop offset="1" stop-color="#FFFAA3"/>
</linearGradient>
<linearGradient id="paint38_linear" x1="176.322" y1="148.549" x2="164.07" y2="125.206" gradientUnits="userSpaceOnUse">
<stop stop-color="#FFD900"/>
<stop offset="1" stop-color="#FFFAA3"/>
</linearGradient>
<linearGradient id="paint39_linear" x1="139.178" y1="79.5079" x2="134.881" y2="100.536" gradientUnits="userSpaceOnUse">
<stop stop-color="#FFDDD1"/>
<stop offset="1" stop-color="#FFB5B2"/>
</linearGradient>
<clipPath id="clip0">
<rect width="262" height="180" fill="white"/>
</clipPath>
</defs>
</svg>
