<svg width="323" height="269" viewBox="0 0 323 269" fill="none" xmlns="http://www.w3.org/2000/svg">
<g clip-path="url(#clip0)">
<path d="M203.406 28.8942C189.88 19.9896 177.876 7.4452 162.247 2.70042C146.909 -1.97936 130.341 0.0355486 114.842 4.09786C92.1264 10.0776 70.2846 20.7371 53.3936 37.1163C29.8369 59.9627 17.5731 92.0713 9.32178 123.887C1.84704 152.713 -2.90961 182.872 2.00883 212.251C4.24155 225.737 8.77169 239.289 17.9938 249.331C27.7012 259.893 41.8094 265.548 55.9499 267.726C70.1228 269.87 84.5222 268.863 98.8245 267.921C141.861 265.158 185.059 263.436 228.095 266.133C243.627 267.108 259.612 268.603 274.368 263.631C290.806 258.106 304.008 244.814 311.774 229.247C319.572 213.681 322.355 195.969 322.355 178.55C322.387 151.998 315.948 125.09 301.581 102.763C290.514 85.5716 275.047 71.8572 258.318 60.3852C242.042 49.2382 223.986 41.1136 207.03 31.1041C205.801 30.4216 204.603 29.6742 203.406 28.8942Z" fill="#FCFCFC"/>
<path d="M113.71 221.253C110.377 210.496 112.674 201.169 112.707 201.104L113.613 201.332C113.58 201.429 111.348 210.496 114.616 220.993L113.71 221.253Z" fill="white"/>
<path d="M114.486 219.206C114.001 212.089 118.952 205.719 119.178 205.459L119.89 206.044C119.825 206.109 114.939 212.414 115.425 219.141L114.486 219.206Z" fill="white"/>
<path d="M98.9219 175.56C100.507 187.682 111.509 200.877 111.509 200.877C122.479 196.229 125.715 189.242 126.588 187.032C129.08 180.728 127.074 173.675 123.094 159.604C120.214 149.529 118.758 144.492 116.331 144.004C110.118 142.737 96.8834 159.928 98.9219 175.56Z" fill="white"/>
<path d="M129.856 196.359C125.359 197.854 122.285 198.309 120.181 201.202C118.887 203.021 118.531 205.036 118.402 206.434C118.402 206.434 127.624 208.871 134.419 204.581C140.826 200.552 144.644 192.459 143.059 190.9C141.958 189.762 139.24 193.207 129.856 196.359Z" fill="white"/>
<path d="M130.924 217.938H96.7216L102.287 245.367H125.359L130.924 217.938Z" fill="#502BEE"/>
<path d="M172.828 27.6271L136.101 49.9536L132.219 40.724L166.486 19.925L172.828 27.6271Z" fill="#000070"/>
<path d="M172.808 27.6601L136.093 49.9607L153.19 78.3537L189.905 56.0531L172.808 27.6601Z" fill="#502BEE"/>
<path d="M156.998 37.2638L151.931 40.3415L169.028 68.7344L174.095 65.6567L156.998 37.2638Z" fill="#FF4F67"/>
<path d="M169.43 23.4998L134.031 45.0138L133.092 42.8039L167.91 21.6474L169.43 23.4998Z" fill="#FF6329"/>
<path d="M157.005 37.2467L151.925 40.3341L147.103 31.6895L151.633 28.9596L157.005 37.2467Z" fill="#FF6329"/>
<path d="M152.345 32.5344L150.371 32.9244C149.174 33.1844 138.464 35.2643 135.066 33.9968C131.248 32.5669 129.306 28.3096 130.698 24.4748C131.377 22.6224 132.736 21.1274 134.548 20.315C136.328 19.5025 138.334 19.405 140.211 20.12C143.641 21.3874 150.371 29.9995 151.116 30.9745L152.345 32.5344ZM133.254 24.8648C133.189 25.0273 133.125 25.1898 133.06 25.3522C132.121 27.8871 133.416 30.747 135.94 31.6894C137.719 32.3394 143.544 31.6569 147.88 30.877C145.097 27.4646 141.117 23.1099 139.337 22.4274C138.108 21.9724 136.781 22.0049 135.584 22.5574C134.548 23.0449 133.739 23.8573 133.254 24.8648Z" fill="#FF6329"/>
<path d="M158.202 22.0374C156.196 26.0997 151.698 31.7545 151.083 32.5344L149.821 34.0943L148.98 32.2744C148.462 31.137 143.997 21.16 144.482 17.5201C144.741 15.5702 145.744 13.8153 147.297 12.5804C148.851 11.3779 150.792 10.8579 152.734 11.0854C154.675 11.3454 156.422 12.3529 157.652 13.9128C158.849 15.4727 159.399 17.4226 159.141 19.405C159.043 20.12 158.688 21.03 158.202 22.0374ZM150.404 29.3496C153.09 25.8397 156.422 20.9975 156.649 19.08C156.811 17.7801 156.455 16.4802 155.678 15.4402C154.869 14.4003 153.704 13.7178 152.41 13.5553C151.116 13.3928 149.821 13.7503 148.786 14.5303C147.75 15.3427 147.071 16.5127 146.909 17.8126C146.683 19.73 148.689 25.2873 150.404 29.3496Z" fill="#FF6329"/>
<path d="M162.862 21.4524L150.76 32.8269L135.195 38.6116L134.354 36.2717L149.433 30.6495L161.179 19.6325L162.862 21.4524Z" fill="#FF6329"/>
<path d="M168.136 94.769H161.503V88.1718H169.786V93.1116C169.754 94.0215 169.042 94.769 168.136 94.769Z" fill="#FF6329"/>
<path d="M179.526 146.962L188.554 189.567C188.781 190.672 188.813 191.809 188.587 192.914L179.073 241.727H175.384L180.141 191.224L166.648 158.629H162.053L156.52 194.409L167.78 229.248L164.447 230.84L148.042 196.359C147.492 195.222 147.233 193.987 147.233 192.752V146.929H179.526V146.962Z" fill="#FF6329"/>
<path d="M185.966 245.854H182.503L179.073 244.749V241.727L182.503 243.417L185.966 244.229V245.854Z" fill="#000070"/>
<path d="M178.005 245.854H175.384V241.727H179.073V244.75L178.005 245.854Z" fill="#000070"/>
<path d="M160.144 237.665L163.218 236.105L165.774 233.57L164.415 230.873L162.085 233.927L159.399 236.202L160.144 237.665Z" fill="#000070"/>
<path d="M167.23 234.057L169.56 232.888L167.715 229.183L164.415 230.873L165.774 233.57L167.23 234.057Z" fill="#000070"/>
<path d="M142.767 67.6003L143.738 64.8054C144.094 63.8304 144.806 63.018 145.777 62.628L148.754 61.3281C148.948 61.2306 149.142 61.4581 149.012 61.653L146.812 64.9029C146.586 65.2279 146.553 65.6828 146.747 66.0403C147.2 66.8528 147.2 67.8277 146.78 68.6402L146.1 69.9726L142.767 67.6003Z" fill="#FFBFAE"/>
<path d="M182.665 62.888L181.306 60.2556C180.82 59.3456 179.979 58.6632 178.976 58.3707L175.837 57.5257C175.643 57.4607 175.481 57.7207 175.643 57.8832L178.297 60.7756C178.588 61.0681 178.653 61.523 178.523 61.8805C178.199 62.758 178.329 63.7004 178.879 64.4479L179.753 65.6503L182.665 62.888Z" fill="#FFBFAE"/>
<path d="M182.244 151.674H145.324V116.056C145.324 110.498 149.789 106.013 155.322 106.013H172.246C177.779 106.013 182.244 110.498 182.244 116.056V151.674Z" fill="#000070"/>
<path d="M161.341 100.066H165.062C166.712 100.066 168.007 98.7338 168.007 97.1089V86.2219H156.034V94.769C156.067 97.6939 158.429 100.066 161.341 100.066Z" fill="#FFBFAE"/>
<path d="M164.739 97.0439L159.982 95.9714L158.946 106.208L161.503 113.423L167.23 106.208L164.739 97.0439Z" fill="#FFBFAE"/>
<path d="M178.102 119.403L172.99 106.046L192.016 92.0716L179.753 65.6829L182.697 62.888L200.171 89.4717C201.659 91.7466 201.368 94.7365 199.524 96.6864L178.102 119.403Z" fill="#000070"/>
<path d="M129.824 89.4067L142.767 67.6328L146.068 69.9726L138.464 91.2916L152.637 109.166L145.906 120.475L129.533 94.054C128.789 92.5266 128.886 90.7717 129.824 89.4067Z" fill="#000070"/>
<path d="M165.515 87.0668H159.852C156.973 87.0668 154.675 84.727 154.675 81.8671L165.386 82.5171L165.515 87.0668Z" fill="#FF6329"/>
<path d="M163.509 89.1143H156.39C154.319 89.1143 152.637 87.4243 152.637 85.3444V83.882H160.856C162.312 83.882 163.477 85.0519 163.477 86.5144V89.1143H163.509Z" fill="#FF6329"/>
<path d="M169.754 89.0818H161.47V82.4846H165.677C167.942 82.4846 169.786 84.337 169.786 86.5794V89.0818H169.754Z" fill="#FF6329"/>
<path d="M167.424 93.924C168.175 93.924 168.783 93.3129 168.783 92.5591C168.783 91.8053 168.175 91.1942 167.424 91.1942C166.674 91.1942 166.065 91.8053 166.065 92.5591C166.065 93.3129 166.674 93.924 167.424 93.924Z" fill="#FFBFAE"/>
<path d="M182.244 134.872H173.702V141.697C173.702 144.784 176.193 147.319 179.3 147.319H182.277V134.872H182.244Z" fill="#000070"/>
<path d="M145.324 134.872H153.866V141.697C153.866 144.784 151.375 147.319 148.268 147.319H145.291V134.872H145.324Z" fill="#000070"/>
<path d="M165.903 101.399L167.23 106.208L161.503 113.423L158.979 106.013L159.432 101.626C155.872 102.699 153.284 105.299 153.284 108.321C153.284 112.318 161.276 115.536 161.276 115.536C161.276 115.536 172.925 112.286 172.925 108.321C172.893 105.039 169.948 102.309 165.903 101.399Z" fill="#FF4F67"/>
<path d="M163.347 140.982C163.185 140.982 163.023 140.852 163.023 140.657L163.541 113.228C163.541 113.066 163.671 112.936 163.865 112.936C164.027 112.936 164.156 113.066 164.156 113.261L163.638 140.689C163.638 140.852 163.509 140.982 163.347 140.982Z" fill="white"/>
<path d="M158.687 132.727C158.493 132.727 158.364 132.565 158.364 132.402L158.882 113.228C158.882 113.066 159.011 112.903 159.205 112.936C159.367 112.936 159.496 113.098 159.496 113.261L158.979 132.435C158.979 132.597 158.849 132.727 158.687 132.727Z" fill="white"/>
<path d="M158.687 133.67C158.137 133.67 157.684 133.215 157.684 132.662V131.005C157.684 130.452 158.137 129.997 158.687 129.997C159.238 129.997 159.691 130.452 159.691 131.005V132.662C159.691 133.215 159.238 133.67 158.687 133.67Z" fill="white"/>
<path d="M163.347 142.282C162.797 142.282 162.344 141.827 162.344 141.274V139.617C162.344 139.064 162.797 138.609 163.347 138.609C163.897 138.609 164.35 139.064 164.35 139.617V141.274C164.35 141.827 163.897 142.282 163.347 142.282Z" fill="white"/>
<path d="M107.238 140.982L110.344 142.444C111.218 142.932 111.865 143.777 112.092 144.752L112.836 147.839C112.868 148.034 112.642 148.164 112.48 148.034L109.762 145.337C109.471 145.044 109.05 144.947 108.694 145.077C107.853 145.369 106.914 145.207 106.203 144.654L105.07 143.777L107.238 140.982Z" fill="#FFBFAE"/>
<path d="M80.3484 131.557L105.911 144.557L108.112 141.729L86.9171 122.913L82.3869 101.334L63.781 98.2463L75.6241 126.715C76.4654 128.892 78.1804 130.647 80.3484 131.557Z" fill="#000070"/>
<path d="M77.0155 82.8421L79.1835 73.06L80.8984 73.45C82.9047 73.905 84.1666 75.8874 83.7136 77.9023L83.5518 78.6498C82.9047 81.6396 79.9601 83.492 77.0155 82.8421Z" fill="#FF4F67"/>
<path d="M44.2042 140.104L48.6697 192.394L36.9884 236.397L41.0008 237.665L60.2216 195.287C61.0952 193.369 61.5159 191.322 61.5159 189.21L61.3217 160.253H63.1985L70.0584 192.394L75.5917 235.845L80.1218 235.39L82.7428 192.589C82.7752 191.939 82.7428 191.322 82.6458 190.672L75.1063 140.072H44.2042V140.104Z" fill="#000070"/>
<path d="M44.9809 247.512L41.6804 246.277L38.8005 244.002L39.8683 241.11L42.554 243.937L45.5633 245.952L44.9809 247.512Z" fill="#FF6329"/>
<path d="M37.3767 244.684L34.8527 243.742L36.3088 239.777L39.8682 241.11L38.8004 244.002L37.3767 244.684Z" fill="#FF6329"/>
<path d="M87.1436 245.432H83.6165L80.0895 244.294V241.207L83.6165 242.93L87.1436 243.742V245.432Z" fill="#FF6329"/>
<path d="M78.9893 245.432H76.336V241.207H80.0895V244.295L78.9893 245.432Z" fill="#FF6329"/>
<path d="M77.3714 148.976L82.7105 102.699C82.8723 99.5138 80.7366 96.6864 77.6302 96.0039L63.425 92.8516C60.351 92.1691 57.2122 93.8265 56.015 96.7514L41.9068 141.079C37.6355 151.706 76.8213 160.416 77.3714 148.976Z" fill="#502BEE"/>
<path d="M74.1355 84.3695L70.6085 83.5895L65.6253 93.5991L71.7734 101.366L74.6209 95.614L74.1355 84.3695Z" fill="#FFBFAE"/>
<path d="M74.5239 90.0242L71.2233 89.3093C69.7672 88.9843 68.8612 87.5543 69.1848 86.0919L71.3204 76.4398L81.9339 78.8122L80.2513 86.3844C79.7012 88.9518 77.1125 90.6092 74.5239 90.0242Z" fill="#FFBFAE"/>
<path d="M70.4791 84.532L70.1555 84.467C69.4112 84.3045 68.9582 83.5895 69.12 82.842L70.5761 76.2774L72.2264 76.6349L70.4791 84.532Z" fill="#FF4F67"/>
<path d="M78.0509 78.2273L70.5438 76.5698L71.2557 73.3525C71.7087 71.2726 73.7472 69.9727 75.8182 70.4276L79.6041 71.2726C81.5132 71.6951 82.7428 73.6125 82.3222 75.5299C81.8691 77.4473 79.96 78.6497 78.0509 78.2273Z" fill="#FF4F67"/>
<path d="M71.3528 79.9172L73.359 70.8826L75.0093 71.2401L73.3913 78.6498C73.1325 79.5597 72.2588 80.1122 71.3528 79.9172Z" fill="#FF4F67"/>
<path d="M72.2325 80.6004C72.3525 80.0572 72.0112 79.5196 71.4702 79.3998C70.9292 79.2799 70.3934 79.6231 70.2734 80.1663C70.1534 80.7095 70.4947 81.247 71.0357 81.3669C71.5767 81.4868 72.1125 81.1436 72.2325 80.6004Z" fill="#FFBFAE"/>
<path d="M36.3089 239.777L36.9884 236.397L41.0008 237.665L39.8035 241.207L36.3089 239.777Z" fill="#FFBFAE"/>
<path d="M76.3359 241.207L75.5593 235.845L80.0895 235.39V241.207H76.3359Z" fill="#FFBFAE"/>
<path d="M42.6714 235.347L36.8072 233.189L35.6496 236.363L41.5138 238.52L42.6714 235.347Z" fill="#502BEE"/>
<path d="M80.977 234.113L74.7444 234.505L74.9545 237.878L81.1872 237.486L80.977 234.113Z" fill="#502BEE"/>
<path d="M73.3913 148.684L55.9179 145.207C55.9179 145.207 61.1599 135.49 59.5744 132.305C63.7486 133.247 72.2911 135.1 75.8181 135.912C76.53 143.712 73.3913 148.684 73.3913 148.684Z" fill="white"/>
<path d="M117.366 135.392L81.7075 117.518L86.9818 109.881L120.278 126.585L117.366 135.392Z" fill="#FF6329"/>
<path d="M81.7325 117.532L67.9961 145.081L103.683 162.93L117.42 135.381L81.7325 117.532Z" fill="#FF4F67"/>
<path d="M101.994 127.695L97.0722 125.227L83.3663 152.791L88.288 155.26L101.994 127.695Z" fill="#000070"/>
<path d="M118.919 130.68L84.5226 113.423L85.8169 111.603L119.631 128.567L118.919 130.68Z" fill="#FF6329"/>
<path d="M101.996 127.69L97.0776 125.22L101.414 117.128L105.814 119.338L101.996 127.69Z" fill="#502BEE"/>
<path d="M103.29 121.288L102.255 120.183C101.478 119.37 94.5536 112.026 93.8741 108.743C93.5182 106.988 93.8418 105.234 94.8125 103.739C95.7832 102.244 97.2717 101.236 99.0191 100.846C102.611 100.099 106.138 102.406 106.882 105.981C107.562 109.231 104.196 118.753 103.808 119.858L103.29 121.288ZM102.999 103.349C101.931 102.634 100.637 102.406 99.4074 102.666C98.1454 102.926 97.0776 103.674 96.3981 104.746C95.6862 105.818 95.4597 107.118 95.7185 108.353C96.1392 110.336 100.152 115.113 102.578 117.745C103.711 114.333 105.491 108.353 105.07 106.371C104.779 105.136 104.035 104.064 102.999 103.349Z" fill="#502BEE"/>
<path d="M101.284 120.28L102.093 119.013C102.708 118.07 108.274 109.621 111.283 108.223C112.901 107.476 114.68 107.378 116.363 107.996C118.013 108.613 119.372 109.816 120.117 111.441C121.67 114.788 120.214 118.753 116.913 120.313C113.904 121.71 103.905 120.573 102.773 120.443L101.284 120.28ZM116.751 110.271C116.46 110.076 116.104 109.913 115.748 109.783C114.551 109.361 113.257 109.393 112.092 109.946C110.247 110.823 106.559 115.828 104.52 118.785C108.079 119.143 114.292 119.5 116.137 118.655C117.301 118.103 118.175 117.16 118.596 115.958C119.016 114.756 118.984 113.456 118.434 112.286C118.078 111.441 117.463 110.758 116.751 110.271Z" fill="#502BEE"/>
<path d="M102.481 120.378L90.2824 111.018L91.3825 109.523L103.29 118.688L117.787 122.458L117.334 124.278L102.481 120.378Z" fill="#502BEE"/>
<path d="M73.812 142.672L76.3036 144.427C77.1773 144.947 78.2127 145.109 79.1835 144.817L82.2251 143.972C82.4193 143.907 82.4193 143.647 82.2251 143.582L78.5687 142.509C78.1804 142.412 77.8891 142.087 77.8244 141.697C77.6626 140.819 77.0802 140.072 76.2712 139.714L75.1063 139.129L73.812 142.672Z" fill="#FFBFAE"/>
<path d="M46.8252 123.465L73.8443 142.704L75.1386 139.162L55.7884 119.208L59.542 111.246L60.1244 93.0141L58.7654 93.3066C57.0181 94.054 55.5943 95.354 54.6883 97.0114L44.9808 114.886C43.2658 117.778 44.0748 121.515 46.8252 123.465Z" fill="#000070"/>
<path d="M245.413 86.9781C247.236 85.9506 247.885 83.633 246.862 81.8017C245.839 79.9703 243.531 79.3186 241.708 80.3461C239.884 81.3736 239.236 83.6912 240.259 85.5226C241.282 87.354 243.589 88.0057 245.413 86.9781Z" fill="#000070"/>
<path d="M245.84 91.6201C247.664 90.5926 248.313 88.275 247.289 86.4436C246.266 84.6123 243.959 83.9606 242.135 84.9881C240.312 86.0156 239.663 88.3332 240.686 90.1646C241.709 91.996 244.017 92.6476 245.84 91.6201Z" fill="#000070"/>
<path d="M247.123 95.2465C248.946 94.219 249.595 91.9014 248.572 90.0701C247.549 88.2387 245.242 87.587 243.418 88.6145C241.595 89.642 240.946 91.9596 241.969 93.791C242.992 95.6224 245.3 96.274 247.123 95.2465Z" fill="#000070"/>
<path d="M250.105 97.6154C251.929 96.5879 252.577 94.2703 251.554 92.439C250.531 90.6076 248.224 89.9559 246.4 90.9834C244.577 92.011 243.928 94.3285 244.951 96.1599C245.974 97.9913 248.282 98.6429 250.105 97.6154Z" fill="#BF6675"/>
<path d="M256.237 97.1473C261.677 94.5937 264.017 88.099 261.462 82.6409C258.908 77.1829 252.428 74.8284 246.988 77.3819C241.548 79.9355 239.209 86.4302 241.763 91.8883C244.317 97.3463 250.797 99.7008 256.237 97.1473Z" fill="#000070"/>
<path d="M219.003 152.259C219.003 152.259 216.738 153.559 215.767 155.216C215.379 155.866 215.153 156.646 215.347 157.426L215.929 159.961C215.962 160.123 216.188 160.156 216.253 160.026L217.256 157.264C217.353 156.971 217.612 156.776 217.935 156.776C218.647 156.776 219.262 156.386 219.586 155.801L221.139 153.916L219.003 152.259Z" fill="#FFBFAE"/>
<path d="M221.106 153.949L241.104 139.259C242.172 138.544 243.013 137.472 243.434 136.27L254.079 108.776L240.683 109.686L234.373 132.142L218.906 152.324L221.106 153.949Z" fill="#502BEE"/>
<path d="M266.537 163.601L267.314 241.305L264.24 242.052L252.332 170.328H251.232L244.307 242.572H241.136L237.221 160.286L266.537 163.601Z" fill="#FFBFAE"/>
<path d="M241.136 242.572H244.307V246.114H242.042L242.495 244.717L238.159 246.114H235.182V245.432L241.136 242.572Z" fill="#000070"/>
<path d="M264.24 242.052L267.314 241.305L268.155 244.749L265.955 245.302L266.052 243.84L262.169 246.212L259.289 246.927L259.127 246.244L264.24 242.052Z" fill="#000070"/>
<path d="M233.176 178.16L269.741 179.103L264.563 113.781C264.24 109.068 259.516 105.428 254.824 105.428H247.155C243.11 105.428 239.745 108.581 239.486 112.611L233.176 178.16Z" fill="#FF4F67"/>
<path d="M247.867 94.119H252.397L255.697 105.429C255.762 105.623 255.665 105.818 255.503 105.916L249.355 109.653C248.676 110.076 247.802 109.686 247.608 108.938L246.831 105.851C246.799 105.753 246.799 105.688 246.799 105.591L247.867 94.119Z" fill="#FFBFAE"/>
<path d="M247.737 99.9363L251.2 99.9688C252.72 100.001 253.982 98.7663 253.982 97.2389L254.112 87.0994L242.981 86.9694L242.884 94.9315C242.851 97.6289 245.019 99.8713 247.737 99.9363Z" fill="#FFBFAE"/>
<path d="M260.915 92.97C262.738 91.9425 263.387 89.6249 262.364 87.7935C261.341 85.9621 259.033 85.3105 257.21 86.338C255.386 87.3655 254.737 89.6831 255.761 91.5145C256.784 93.3458 259.091 93.9975 260.915 92.97Z" fill="#000070"/>
<path d="M258.979 97.7785C260.803 96.7509 261.452 94.4334 260.429 92.602C259.406 90.7706 257.098 90.119 255.275 91.1465C253.451 92.174 252.802 94.4916 253.825 96.3229C254.848 98.1543 257.156 98.806 258.979 97.7785Z" fill="#000070"/>
<path d="M248.754 83.6035C250.577 82.576 251.226 80.2584 250.203 78.427C249.18 76.5956 246.873 75.944 245.049 76.9715C243.226 77.999 242.577 80.3166 243.6 82.148C244.623 83.9793 246.93 84.631 248.754 83.6035Z" fill="#000070"/>
<path d="M252.722 83.0239C254.545 81.9964 255.194 79.6788 254.171 77.8474C253.148 76.016 250.84 75.3644 249.017 76.3919C247.193 77.4194 246.544 79.737 247.568 81.5684C248.591 83.3997 250.898 84.0514 252.722 83.0239Z" fill="#000070"/>
<path d="M256.895 83.6313C258.719 82.6037 259.368 80.2862 258.345 78.4548C257.321 76.6234 255.014 75.9717 253.19 76.9992C251.367 78.0268 250.718 80.3444 251.741 82.1757C252.764 84.0071 255.072 84.6588 256.895 83.6313Z" fill="#000070"/>
<path d="M259.368 86.0052C261.191 84.9777 261.84 82.6601 260.817 80.8287C259.794 78.9974 257.486 78.3457 255.663 79.3732C253.839 80.4007 253.19 82.7183 254.214 84.5497C255.237 86.3811 257.544 87.0327 259.368 86.0052Z" fill="#000070"/>
<path d="M261.339 88.6421C263.162 87.6146 263.811 85.297 262.788 83.4656C261.765 81.6343 259.457 80.9826 257.634 82.0101C255.81 83.0376 255.161 85.3552 256.184 87.1866C257.208 89.018 259.515 89.6696 261.339 88.6421Z" fill="#000070"/>
<path d="M255.575 91.6321C255.585 90.8245 254.941 90.1615 254.137 90.1513C253.333 90.141 252.673 90.7874 252.663 91.595C252.652 92.4026 253.296 93.0656 254.1 93.0758C254.904 93.0861 255.564 92.4397 255.575 91.6321Z" fill="#FFBFAE"/>
<path d="M259.095 150.861L266.505 137.992C266.505 137.992 267.832 139.552 266.829 141.957L261.069 151.999C260.875 152.356 260.486 152.551 260.098 152.551C259.904 152.551 259.71 152.519 259.548 152.389C258.966 152.096 258.771 151.414 259.095 150.861Z" fill="#000070"/>
<path d="M244.372 105.883C245.375 104.844 246.475 105.234 246.766 105.396C246.766 105.526 246.766 105.656 246.734 105.818C246.669 106.111 238.806 134.45 248.708 149.919C249.032 150.439 248.902 151.154 248.352 151.479C248.158 151.609 247.964 151.674 247.737 151.674C247.381 151.674 246.993 151.479 246.799 151.154C237.156 135.977 243.142 110.531 244.372 105.883Z" fill="#000070"/>
<path d="M213.34 117.55C213.34 117.55 210.946 116.511 209.813 114.951C209.36 114.333 209.037 113.618 209.134 112.773L209.425 110.206C209.458 110.043 209.652 109.978 209.749 110.108L211.043 112.741C211.173 113.001 211.464 113.163 211.787 113.131C212.499 113.066 213.146 113.358 213.535 113.943L215.282 115.633L213.34 117.55Z" fill="#FFBFAE"/>
<path d="M263.043 109.816C265.437 112.643 264.919 116.9 261.91 119.078L242.981 133.605C241.751 134.58 240.036 134.677 238.709 133.865L213.243 117.583L214.829 115.048L238.839 124.863L253.497 109.588C256.086 106.761 260.551 106.858 263.043 109.816C263.01 109.816 263.043 109.816 263.043 109.816Z" fill="#502BEE"/>
<path d="M212.079 113.293C212.499 113.098 212.693 112.611 212.499 112.188L209.037 104.291C208.843 103.869 208.357 103.674 207.937 103.869C207.516 104.064 207.322 104.551 207.516 104.974L211.011 112.871C211.172 113.293 211.658 113.488 212.079 113.293Z" fill="#000070"/>
<path d="M248.352 163.828H260.26C263.852 163.763 265.146 162.106 265.146 158.921V152.714C265.146 149.984 262.946 147.807 260.26 147.807H248.352C245.634 147.807 243.466 150.016 243.466 152.714V158.921C243.466 161.618 245.666 163.828 248.352 163.828Z" fill="white"/>
<path d="M243.466 155.606V152.519C243.466 149.789 245.666 147.612 248.384 147.612H260.292C263.01 147.612 265.211 149.821 265.211 152.519V155.606H243.466Z" fill="#FCE8DE"/>
<path d="M252.254 157.166H256.331V154.046H252.254V157.166Z" fill="#000070"/>
<path d="M211.367 168.021L211.334 160.513C211.334 157.751 213.535 155.509 216.285 155.509C217.612 155.509 218.874 156.029 219.812 156.971C220.751 157.914 221.268 159.149 221.268 160.481L221.301 167.988L211.367 168.021ZM216.285 156.744C214.214 156.744 212.564 158.434 212.564 160.513L212.596 166.753L220.071 166.721L220.039 160.481C220.039 159.473 219.65 158.531 218.938 157.849C218.227 157.134 217.288 156.744 216.285 156.744Z" fill="#000070"/>
<path d="M227.546 205.816L224.601 204.029L221.268 204.971L226.478 167.208L232.723 168.086L227.546 205.816Z" fill="#000070"/>
<path d="M199.759 163.493L194.553 201.253L221.287 204.951L226.494 167.19L199.759 163.493Z" fill="#502BEE"/>
<path d="M216.803 168.703L207.225 166.103L209.166 158.856C209.522 157.556 210.331 156.484 211.496 155.834C212.661 155.184 213.988 154.989 215.282 155.346C216.576 155.704 217.644 156.516 218.291 157.686C218.938 158.856 219.133 160.188 218.777 161.488L216.803 168.703ZM208.746 165.226L215.962 167.176L217.579 161.131C218.13 159.149 216.932 157.069 214.958 156.549C213.988 156.289 212.985 156.419 212.111 156.906C211.237 157.394 210.622 158.206 210.364 159.181L208.746 165.226Z" fill="#502BEE"/>
<path d="M216.742 182.764C217.194 179.474 214.906 176.44 211.631 175.985C208.356 175.531 205.334 177.829 204.882 181.119C204.429 184.408 206.718 187.443 209.993 187.897C213.268 188.351 216.289 186.053 216.742 182.764Z" fill="white"/>
</g>
<defs>
<clipPath id="clip0">
<rect width="322.355" height="269" fill="white"/>
</clipPath>
</defs>
</svg>
